<svg version="1.1" xmlns="http://www.w3.org/2000/svg" xmlns:xlink="http://www.w3.org/1999/xlink" width="64px" height="64px" viewBox="0,0,256,256"><defs><linearGradient x1="39.938" y1="30" x2="39.938" y2="39" gradientUnits="userSpaceOnUse" id="color-1"><stop offset="0" stop-color="#647dff"></stop><stop offset="1" stop-color="#000000"></stop></linearGradient><linearGradient x1="31.999" y1="10.961" x2="31.999" y2="53" gradientUnits="userSpaceOnUse" id="color-2"><stop offset="0" stop-color="#647dff"></stop><stop offset="1" stop-color="#000000"></stop></linearGradient><linearGradient x1="24" y1="30" x2="24" y2="39" gradientUnits="userSpaceOnUse" id="color-3"><stop offset="0" stop-color="#647dff"></stop><stop offset="1" stop-color="#000000"></stop></linearGradient></defs><g fill="none" fill-rule="nonzero" stroke="none" stroke-width="1" stroke-linecap="butt" stroke-linejoin="miter" stroke-miterlimit="10" stroke-dasharray="" stroke-dashoffset="0" font-family="none" font-weight="none" font-size="none" text-anchor="none" style="mix-blend-mode: normal"><g transform="translate(0.004,0.07683) scale(4,4)"><path d="M39.938,30c-2.1749,0 -3.938,2.01472 -3.938,4.5c0,2.48528 1.7631,4.5 3.938,4.5c2.1749,0 3.938,-2.01472 3.938,-4.5c0,-2.48528 -1.7631,-4.5 -3.938,-4.5z" fill="url(#color-1)"></path><path d="M52.263,15.938c-4.816,-3.871 -13.024,-4.925 -13.372,-4.968c-0.437,-0.057 -0.855,0.182 -1.035,0.583c-0.025,0.055 -0.543,1.23 -0.778,2.782c-1.992,-0.262 -3.765,-0.335 -5.095,-0.335c-1.373,0 -3.216,0.076 -5.289,0.36c-0.233,-1.564 -0.757,-2.753 -0.782,-2.808c-0.18,-0.401 -0.598,-0.636 -1.039,-0.583c-0.337,0.043 -8.322,1.099 -13.188,5.013c-2.563,2.368 -7.685,16.143 -7.685,28.018c0,0.173 0.045,0.344 0.131,0.495c3.427,6.02 13.558,8.432 15.837,8.505c0.011,0 0.021,0 0.032,0c0.303,0 0.591,-0.138 0.781,-0.375l3.495,-4.368c2.243,0.446 4.822,0.743 7.748,0.743c2.911,0 5.474,-0.294 7.706,-0.737l3.49,4.362c0.189,0.237 0.477,0.375 0.78,0.375c0.011,0 0.021,0 0.032,0c2.274,-0.073 12.39,-2.495 15.835,-8.547c0.086,-0.15 0.131,-0.321 0.131,-0.495c0.001,-11.853 -5.121,-25.609 -7.735,-28.02zM44.451,50.963l-2.56,-3.2c5.635,-1.499 8.568,-3.846 8.744,-3.99c0.426,-0.35 0.487,-0.978 0.139,-1.405c-0.349,-0.426 -0.978,-0.49 -1.406,-0.143c-0.059,0.048 -6.003,4.775 -17.344,4.775c-11.331,0 -17.322,-4.719 -17.394,-4.776c-0.427,-0.348 -1.057,-0.284 -1.405,0.145c-0.349,0.428 -0.285,1.058 0.144,1.407c0.177,0.144 3.121,2.48 8.748,3.979l-2.567,3.209c-2.906,-0.323 -10.736,-2.658 -13.547,-7.236c0.078,-11.308 5.015,-24.405 6.989,-26.232c3.547,-2.851 9.281,-4.06 11.356,-4.42c0.133,0.413 0.281,0.98 0.373,1.611c-2.991,0.579 -6.274,1.619 -9.246,3.463c-0.47,0.291 -0.614,0.907 -0.323,1.376c0.292,0.471 0.907,0.616 1.376,0.323c5.4,-3.349 12.001,-3.849 15.455,-3.849c3.467,0 10.089,0.5 15.49,3.85c0.164,0.102 0.346,0.15 0.526,0.15c0.334,0 0.662,-0.168 0.851,-0.473c0.292,-0.469 0.147,-1.085 -0.323,-1.376c-3.043,-1.888 -6.417,-2.931 -9.473,-3.502c0.093,-0.618 0.239,-1.171 0.369,-1.576c2.109,0.352 8.01,1.549 11.534,4.379c2.026,1.871 6.961,14.95 7.04,26.235c-2.825,4.605 -10.645,6.953 -13.546,7.276z" fill="url(#color-2)"></path><path d="M24,30c-2.20914,0 -4,2.01472 -4,4.5c0,2.48528 1.79086,4.5 4,4.5c2.20914,0 4,-2.01472 4,-4.5c0,-2.48528 -1.79086,-4.5 -4,-4.5z" fill="url(#color-3)"></path></g></g></svg>
