
<svg width="240" height="240" viewBox="0 0 240 240" fill="none" xmlns="http://www.w3.org/2000/svg">
<g clip-path="url(#clip0_658_11)">
<path d="M120 240.001C186.275 240.001 240.001 186.275 240.001 120C240.001 53.726 186.275 0 120 0C53.726 0 0 53.726 0 120C0 186.275 53.726 240.001 120 240.001Z" fill="url(#paint0_linear_658_11)"/>
<path d="M166.708 82.6297C155.487 73.5996 137.735 72.069 136.975 72.0139C135.797 71.9147 134.673 72.5755 134.189 73.6657C134.145 73.7318 133.759 74.6238 133.33 76.0113C140.752 77.2667 149.87 79.7885 158.118 84.9092C159.44 85.7241 159.847 87.464 159.032 88.7855C158.493 89.6554 157.579 90.129 156.632 90.129C156.125 90.129 155.608 89.9858 155.145 89.6995C140.961 80.9007 123.254 80.4603 119.84 80.4603C116.426 80.4603 98.7075 80.9007 84.5348 89.6995C83.2133 90.5254 81.4734 90.118 80.6585 88.7965C79.8326 87.464 80.24 85.7351 81.5615 84.9092C89.8096 79.7995 98.9278 77.2667 106.35 76.0223C105.921 74.6238 105.535 73.7428 105.502 73.6657C105.007 72.5755 103.894 71.8927 102.705 72.0139C101.945 72.0689 84.1934 73.5996 72.8178 82.7508C66.8822 88.2459 55 120.358 55 148.119C55 148.615 55.1322 149.088 55.3744 149.518C63.5675 163.922 85.9333 167.688 91.032 167.853C91.054 167.853 91.0871 167.853 91.1201 167.853C92.0231 167.853 92.871 167.424 93.3996 166.697L98.5534 159.605C84.6449 156.015 77.542 149.914 77.1346 149.551C75.9673 148.527 75.8572 146.743 76.8923 145.576C77.9164 144.408 79.7004 144.298 80.8677 145.322C81.0329 145.476 94.1154 156.577 119.84 156.577C145.609 156.577 158.691 145.432 158.823 145.322C159.991 144.309 161.764 144.408 162.799 145.587C163.823 146.754 163.713 148.527 162.545 149.551C162.138 149.914 155.035 156.015 141.127 159.605L146.28 166.697C146.809 167.424 147.657 167.853 148.56 167.853C148.593 167.853 148.626 167.853 148.648 167.853C153.747 167.688 176.112 163.922 184.306 149.518C184.548 149.088 184.68 148.615 184.68 148.119C184.68 120.358 172.798 88.2459 166.708 82.6297ZM101.516 136.843C96.0646 136.843 91.6487 131.799 91.6487 125.566C91.6487 119.333 96.0646 114.29 101.516 114.29C106.967 114.29 111.383 119.333 111.383 125.566C111.383 131.799 106.967 136.843 101.516 136.843ZM138.164 136.843C132.713 136.843 128.297 131.799 128.297 125.566C128.297 119.333 132.713 114.29 138.164 114.29C143.615 114.29 148.031 119.333 148.031 125.566C148.031 131.799 143.615 136.843 138.164 136.843Z" fill="white"/>
</g>
<defs>
<linearGradient id="paint0_linear_658_11" x1="120" y1="240.001" x2="120" y2="0" gradientUnits="userSpaceOnUse">
<stop/>
<stop offset="1" stop-color="#647DFF"/>
</linearGradient>
<clipPath id="clip0_658_11">
<rect width="240" height="240" fill="white"/>
</clipPath>
</defs>
</svg>
