<svg width="105" height="23" viewBox="0 0 105 23" fill="none" xmlns="http://www.w3.org/2000/svg">
<path d="M4.1 16.44C3.75333 16.44 3.38 16.4 2.98 16.32C2.59333 16.24 2.22 16.1133 1.86 15.94C1.51333 15.7667 1.22667 15.5333 1 15.24C0.786667 14.9467 0.68 14.5867 0.68 14.16C0.68 13.5333 0.86 12.96 1.22 12.44C1.59333 11.92 2.07333 11.4733 2.66 11.1C3.26 10.7267 3.91333 10.44 4.62 10.24C5.34 10.04 6.04667 9.94 6.74 9.94C6.96667 9.94 7.29333 9.96667 7.72 10.02C8.14667 10.0733 8.57333 10.1667 9 10.3C9.44 10.4333 9.79333 10.6267 10.06 10.88C10.2067 11.0133 10.3067 11.1467 10.36 11.28C10.4133 11.4133 10.44 11.5533 10.44 11.7C10.44 11.9533 10.3467 12.1667 10.16 12.34C10.8933 11.7133 11.6 11.0333 12.28 10.3C12.9733 9.56667 13.6267 8.82667 14.24 8.08C14.8533 7.32 15.42 6.6 15.94 5.92C16.46 5.22667 16.92 4.62667 17.32 4.12C17.36 4.06667 17.4133 4.04 17.48 4.04C17.5467 4.04 17.6067 4.08 17.66 4.16C17.7133 4.22667 17.7067 4.29333 17.64 4.36C17.1467 4.98667 16.6 5.68667 16 6.46C15.4133 7.23333 14.7733 8.03333 14.08 8.86C13.4 9.67333 12.68 10.4667 11.92 11.24C11.1733 12 10.3933 12.6867 9.58 13.3C8.78 13.9133 7.96 14.4 7.12 14.76C6.29333 15.12 5.46 15.3 4.62 15.3C3.78 15.3 3.16667 15.1533 2.78 14.86C2.39333 14.5667 2.2 14.2133 2.2 13.8C2.2 13.3733 2.38 12.94 2.74 12.5C3.11333 12.06 3.63333 11.6933 4.3 11.4C4.98 11.0933 5.77333 10.94 6.68 10.94C7.32 10.94 7.84667 11.0533 8.26 11.28C8.67333 11.5067 8.98 11.7133 9.18 11.9C9.36667 12.06 9.52667 12.14 9.66 12.14C9.76667 12.14 9.85333 12.1 9.92 12.02C9.98667 11.9267 10.02 11.8267 10.02 11.72C10.02 11.4533 9.89333 11.2333 9.64 11.06C9.38667 10.8867 9.07333 10.7467 8.7 10.64C8.32667 10.5333 7.96 10.46 7.6 10.42C7.24 10.3667 6.95333 10.34 6.74 10.34C6.08667 10.34 5.42667 10.4333 4.76 10.62C4.10667 10.8067 3.5 11.0733 2.94 11.42C2.39333 11.7533 1.94667 12.1533 1.6 12.62C1.26667 13.0733 1.1 13.5733 1.1 14.12C1.1 14.5733 1.24667 14.94 1.54 15.22C1.84667 15.5 2.22667 15.7067 2.68 15.84C3.14667 15.9733 3.62 16.04 4.1 16.04C4.7 16.04 5.39333 15.9533 6.18 15.78C6.96667 15.6067 7.81333 15.3 8.72 14.86C9.64 14.4067 10.5867 13.78 11.56 12.98C12.5467 12.1667 13.5267 11.1267 14.5 9.86C15.06 9.14 15.6067 8.43333 16.14 7.74C16.6867 7.03333 17.1733 6.4 17.6 5.84C18.0267 5.26667 18.3667 4.81333 18.62 4.48C18.8867 4.13333 19.02 3.96 19.02 3.96C19.06 3.90667 19.1067 3.88 19.16 3.88C19.2667 3.88 19.4333 3.96 19.66 4.12C19.9 4.28 20.1133 4.36 20.3 4.36C20.54 4.36 20.6933 4.22667 20.76 3.96C20.8267 3.73333 20.7533 3.52 20.54 3.32C20.3267 3.10667 20.0533 2.92 19.72 2.76C19.4 2.6 19.0867 2.46667 18.78 2.36C18.4733 2.25333 18.2533 2.18 18.12 2.14C17.2667 1.87333 16.3133 1.66667 15.26 1.52C14.2067 1.37333 13.22 1.3 12.3 1.3C11.8733 1.3 11.3533 1.31333 10.74 1.34C10.14 1.36667 9.5 1.42667 8.82 1.52C8.15333 1.6 7.49333 1.73333 6.84 1.92C6.18667 2.09333 5.60667 2.32667 5.1 2.62C4.59333 2.91333 4.14667 3.28667 3.76 3.74C3.37333 4.18 3.18 4.66667 3.18 5.2C3.18 5.48 3.21333 5.68667 3.28 5.82C3.34667 5.94 3.41333 6 3.48 6C3.62667 6 3.7 5.86667 3.7 5.6C3.7 5.09333 3.86667 4.62667 4.2 4.2C4.54667 3.77333 4.89333 3.44667 5.24 3.22C5.92 2.76667 6.82 2.43333 7.94 2.22C9.07333 2.00667 10.2467 1.9 11.46 1.9C12.3133 1.9 13.1533 1.95333 13.98 2.06C14.8067 2.15333 15.5667 2.3 16.26 2.5C16.9667 2.7 17.5467 2.95333 18 3.26C18.0667 3.28667 18.1 3.34 18.1 3.42C18.1 3.48667 18.0667 3.54667 18 3.6C17.9467 3.64 17.88 3.63333 17.8 3.58C17.36 3.3 16.8 3.06667 16.12 2.88C15.4533 2.68 14.72 2.53333 13.92 2.44C13.12 2.33333 12.3067 2.28 11.48 2.28C10.2933 2.28 9.15333 2.38667 8.06 2.6C6.98 2.8 6.12 3.11333 5.48 3.54C5.14667 3.76667 4.83333 4.07333 4.54 4.46C4.24667 4.83333 4.1 5.21333 4.1 5.6C4.1 5.85333 4.03333 6.05333 3.9 6.2C3.78 6.33333 3.64 6.4 3.48 6.4C3.30667 6.4 3.14667 6.30667 3 6.12C2.85333 5.92 2.78 5.61333 2.78 5.2C2.78 4.77333 2.88 4.37333 3.08 4C3.29333 3.62667 3.56 3.29333 3.88 3C4.21333 2.70667 4.55333 2.46 4.9 2.26C5.43333 1.95333 6.03333 1.71333 6.7 1.54C7.38 1.35333 8.06667 1.21333 8.76 1.12C9.46667 1.02667 10.1267 0.966666 10.74 0.94C11.3667 0.913332 11.8867 0.899999 12.3 0.899999C12.82 0.899999 13.4467 0.933332 14.18 0.999999C14.9133 1.06667 15.6733 1.17333 16.46 1.32C17.2467 1.46667 17.9867 1.65333 18.68 1.88C19.3867 2.10667 19.9667 2.38 20.42 2.7C20.6333 2.84667 20.8133 3.01333 20.96 3.2C21.1067 3.38667 21.18 3.59333 21.18 3.82C21.18 4.04667 21.1067 4.26 20.96 4.46C20.8133 4.66 20.6067 4.76 20.34 4.76C20.1533 4.76 19.96 4.72 19.76 4.64C19.56 4.54667 19.38 4.45333 19.22 4.36C19.1 4.52 18.8933 4.79333 18.6 5.18C18.32 5.55333 17.9733 6.00667 17.56 6.54C17.16 7.06 16.72 7.62667 16.24 8.24C15.7733 8.85333 15.3 9.47333 14.82 10.1C13.82 11.3933 12.82 12.4533 11.82 13.28C10.82 14.1067 9.84667 14.7533 8.9 15.22C7.96667 15.6733 7.08667 15.9867 6.26 16.16C5.44667 16.3467 4.72667 16.44 4.1 16.44ZM2.6 13.78C2.6 14.0867 2.76 14.3533 3.08 14.58C3.4 14.7933 3.91333 14.9 4.62 14.9C5.55333 14.9 6.48 14.66 7.4 14.18C8.33333 13.7 9.24667 13.0867 10.14 12.34C9.99333 12.46 9.83333 12.52 9.66 12.52C9.39333 12.52 9.14 12.4067 8.9 12.18C8.72667 12.02 8.45333 11.84 8.08 11.64C7.72 11.44 7.25333 11.34 6.68 11.34C5.88 11.34 5.17333 11.4733 4.56 11.74C3.94667 11.9933 3.46667 12.3133 3.12 12.7C2.77333 13.0733 2.6 13.4333 2.6 13.78ZM21.6914 7.96C21.3714 7.96 21.0981 7.84667 20.8714 7.62C20.6447 7.39333 20.5314 7.12 20.5314 6.8C20.5314 6.46667 20.6447 6.18667 20.8714 5.96C21.0981 5.73333 21.3714 5.62 21.6914 5.62C22.0247 5.62 22.3047 5.73333 22.5314 5.96C22.7581 6.18667 22.8714 6.46667 22.8714 6.8C22.8714 7.12 22.7581 7.39333 22.5314 7.62C22.3047 7.84667 22.0247 7.96 21.6914 7.96ZM21.6914 7.56C21.9181 7.56 22.1047 7.48667 22.2514 7.34C22.3981 7.19333 22.4714 7.01333 22.4714 6.8C22.4714 6.57333 22.3981 6.38667 22.2514 6.24C22.1047 6.09333 21.9181 6.02 21.6914 6.02C21.4781 6.02 21.2981 6.09333 21.1514 6.24C21.0047 6.38667 20.9314 6.57333 20.9314 6.8C20.9314 7.01333 21.0047 7.19333 21.1514 7.34C21.2981 7.48667 21.4781 7.56 21.6914 7.56ZM18.9914 14.88C18.7381 14.88 18.5581 14.7867 18.4514 14.6C18.3581 14.4133 18.3114 14.2067 18.3114 13.98C18.3114 13.7933 18.3581 13.5267 18.4514 13.18C18.5447 12.8333 18.6714 12.46 18.8314 12.06C19.0047 11.6467 19.1981 11.2667 19.4114 10.92C19.6247 10.56 19.8447 10.2733 20.0714 10.06C20.1914 9.94 20.3181 9.83333 20.4514 9.74C20.5847 9.55333 20.6514 9.38 20.6514 9.22C20.6514 9.02 20.5581 8.86667 20.3714 8.76C20.1981 8.64 20.0047 8.58 19.7914 8.58C19.5647 8.58 19.3914 8.63333 19.2714 8.74C19.0847 8.91333 18.8847 9.12 18.6714 9.36C18.4714 9.58667 18.2581 9.85333 18.0314 10.16C17.7914 10.4667 17.5381 10.8 17.2714 11.16C17.0047 11.5067 16.6981 11.88 16.3514 12.28C16.3114 12.3333 16.2581 12.36 16.1914 12.36C16.1247 12.36 16.0714 12.32 16.0314 12.24C15.9781 12.16 15.9781 12.0867 16.0314 12.02C16.3781 11.6333 16.6847 11.26 16.9514 10.9C17.2314 10.54 17.4847 10.2133 17.7114 9.92C17.9514 9.61333 18.1714 9.34 18.3714 9.1C18.5847 8.84667 18.7981 8.62667 19.0114 8.44C19.2114 8.25333 19.4581 8.16 19.7514 8.16C20.0981 8.16 20.4114 8.28 20.6914 8.52C20.9714 8.74667 21.1114 9.01333 21.1114 9.32C21.1114 9.58667 20.9714 9.83333 20.6914 10.06L20.5914 10.14C20.4581 10.26 20.3181 10.3867 20.1714 10.52C20.0381 10.6533 19.9247 10.8 19.8314 10.96C19.6847 11.2667 19.5181 11.6067 19.3314 11.98C19.1581 12.34 19.0047 12.7 18.8714 13.06C18.7514 13.42 18.6914 13.74 18.6914 14.02C18.6914 14.3267 18.8181 14.48 19.0714 14.48C19.1914 14.48 19.3381 14.4467 19.5114 14.38C19.9247 14.2067 20.3514 13.9333 20.7914 13.56C21.2314 13.1867 21.7047 12.6733 22.2114 12.02C22.2514 11.9667 22.2981 11.94 22.3514 11.94C22.4314 11.94 22.4981 11.98 22.5514 12.06C22.6047 12.1267 22.5981 12.1933 22.5314 12.26C22.1181 12.7933 21.7314 13.2267 21.3714 13.56C21.0247 13.8933 20.6181 14.1933 20.1514 14.46C19.8981 14.6067 19.6781 14.7133 19.4914 14.78C19.3047 14.8467 19.1381 14.88 18.9914 14.88ZM18.8914 16.1C18.2381 16.1 17.7247 15.8733 17.3514 15.42C16.9914 14.9667 16.8381 14.4067 16.8914 13.74C16.9047 13.54 16.9647 13.26 17.0714 12.9C17.1781 12.5267 17.3114 12.1533 17.4714 11.78C17.6447 11.3933 17.8181 11.08 17.9914 10.84C18.0314 10.7867 18.0847 10.76 18.1514 10.76C18.2181 10.76 18.2781 10.7933 18.3314 10.86C18.3847 10.9267 18.3781 11 18.3114 11.08C18.1514 11.2933 17.9914 11.58 17.8314 11.94C17.6847 12.3 17.5581 12.6533 17.4514 13C17.3581 13.3467 17.3047 13.6067 17.2914 13.78C17.2514 14.2733 17.3714 14.72 17.6514 15.12C17.9314 15.52 18.3514 15.72 18.9114 15.72C19.2581 15.72 19.6647 15.62 20.1314 15.42C20.5981 15.2067 21.1047 14.8533 21.6514 14.36C21.6781 14.3333 21.7181 14.32 21.7714 14.32C21.8647 14.32 21.9314 14.3667 21.9714 14.46C22.0247 14.54 22.0114 14.6133 21.9314 14.68C21.3581 15.1867 20.8114 15.5533 20.2914 15.78C19.7847 15.9933 19.3181 16.1 18.8914 16.1ZM22.3633 12.36C22.2966 12.36 22.2433 12.32 22.2033 12.24C22.1499 12.16 22.1499 12.0867 22.2033 12.02C22.8299 11.3133 23.4299 10.6 24.0033 9.88C24.5899 9.14667 25.2099 8.44 25.8633 7.76C26.0366 7.58667 26.2099 7.46667 26.3833 7.4C26.5699 7.32 26.7499 7.28 26.9233 7.28C27.1899 7.28 27.4233 7.35333 27.6233 7.5C27.8366 7.63333 27.9433 7.79333 27.9433 7.98C27.9433 8.08667 27.8899 8.20667 27.7833 8.34C27.7433 8.38 27.6966 8.4 27.6433 8.4C27.5633 8.4 27.4966 8.36667 27.4433 8.3C27.4033 8.22 27.4166 8.14 27.4833 8.06C27.5099 8.03333 27.5233 8.00667 27.5233 7.98C27.5233 7.87333 27.4299 7.78667 27.2433 7.72C27.2033 7.70667 27.1566 7.7 27.1033 7.7C27.0633 7.68667 27.0099 7.68 26.9433 7.68C26.8233 7.68 26.6899 7.70667 26.5433 7.76C26.4099 7.81333 26.2766 7.90667 26.1433 8.04C25.5033 8.70667 24.8899 9.40667 24.3033 10.14C23.7299 10.86 23.1366 11.5733 22.5233 12.28C22.4833 12.3333 22.4299 12.36 22.3633 12.36ZM24.9033 11.64C24.8366 11.64 24.7766 11.6067 24.7233 11.54C24.6833 11.46 24.6966 11.3867 24.7633 11.32C25.0833 10.9333 25.4699 10.5267 25.9233 10.1C26.3899 9.66 26.8966 9.29333 27.4433 9C27.9899 8.69333 28.5499 8.54 29.1233 8.54C29.3099 8.54 29.4966 8.56667 29.6833 8.62C29.8833 8.67333 30.0699 8.75333 30.2433 8.86C30.3099 8.9 30.3433 8.95333 30.3433 9.02C30.3433 9.08667 30.3099 9.14667 30.2433 9.2C30.1766 9.24 30.0966 9.23333 30.0033 9.18C29.8833 9.1 29.7433 9.04 29.5833 9C29.4233 8.96 29.2699 8.94 29.1233 8.94C28.6166 8.94 28.1099 9.08 27.6033 9.36C27.0966 9.62667 26.6233 9.96 26.1833 10.36C25.7566 10.76 25.3833 11.16 25.0633 11.56C25.0233 11.6133 24.9699 11.64 24.9033 11.64ZM33.3833 14.62C33.1566 14.62 32.9566 14.5467 32.7833 14.4C32.6099 14.2533 32.5233 14.0533 32.5233 13.8C32.5233 13.6133 32.6166 13.34 32.8033 12.98C33.0033 12.62 33.2299 12.2333 33.4833 11.82C33.7366 11.3933 33.9566 11.0067 34.1433 10.66C34.3433 10.3 34.4433 10.04 34.4433 9.88C34.4433 9.57333 34.3099 9.34 34.0433 9.18C33.7766 9.02 33.4766 8.94 33.1433 8.94C32.6366 8.94 32.1299 9.08 31.6233 9.36C31.1299 9.62667 30.6633 9.96667 30.2233 10.38C29.7966 10.78 29.4233 11.1733 29.1033 11.56C29.0633 11.6133 29.0099 11.64 28.9433 11.64C28.8766 11.64 28.8166 11.6067 28.7633 11.54C28.7233 11.46 28.7299 11.3867 28.7833 11.32C29.1033 10.9333 29.4899 10.5267 29.9433 10.1C30.4099 9.66 30.9166 9.29333 31.4633 9C32.0099 8.69333 32.5699 8.54 33.1433 8.54C33.3833 8.54 33.6366 8.58667 33.9033 8.68C34.1699 8.76 34.3899 8.9 34.5633 9.1C34.7499 9.3 34.8433 9.56 34.8433 9.88C34.8433 10.08 34.7433 10.3667 34.5433 10.74C34.3566 11.1133 34.1366 11.5133 33.8833 11.94C33.6299 12.3533 33.4033 12.7333 33.2033 13.08C33.0166 13.4133 32.9233 13.6533 32.9233 13.8C32.9233 14.08 33.0766 14.22 33.3833 14.22C33.6899 14.22 34.0099 14.0867 34.3433 13.82C34.6766 13.5533 34.9833 13.2467 35.2633 12.9C35.5566 12.54 35.7833 12.2467 35.9433 12.02C35.9833 11.9667 36.0299 11.94 36.0833 11.94C36.1499 11.94 36.2099 11.9733 36.2633 12.04C36.3299 12.1067 36.3299 12.18 36.2633 12.26C36.0766 12.5267 35.8233 12.8467 35.5033 13.22C35.1966 13.5933 34.8566 13.92 34.4833 14.2C34.1233 14.48 33.7566 14.62 33.3833 14.62ZM27.0433 16.06C26.7766 16.06 26.5766 15.9667 26.4433 15.78C26.3099 15.5933 26.2433 15.3933 26.2433 15.18C26.2433 14.9667 26.3033 14.7133 26.4233 14.42C26.5433 14.1267 26.6766 13.84 26.8233 13.56C26.9833 13.2667 27.1099 13.02 27.2033 12.82C27.2433 12.74 27.3033 12.7 27.3833 12.7C27.4499 12.7 27.5033 12.7333 27.5433 12.8C27.5966 12.8533 27.6033 12.92 27.5633 13C27.4833 13.16 27.3699 13.38 27.2233 13.66C27.0766 13.94 26.9433 14.22 26.8233 14.5C26.7033 14.78 26.6433 15.0067 26.6433 15.18C26.6433 15.5 26.7766 15.66 27.0433 15.66C27.3099 15.66 27.5566 15.4867 27.7833 15.14C28.0233 14.7933 28.2899 14.3533 28.5833 13.82C28.8766 13.2867 29.2233 12.7333 29.6233 12.16C30.0233 11.5867 30.5099 11.0667 31.0833 10.6C31.6566 10.1333 32.3566 9.79333 33.1833 9.58H33.2433C33.3766 9.58 33.4433 9.64667 33.4433 9.78C33.4433 9.87333 33.3899 9.93333 33.2833 9.96C32.4566 10.1733 31.7366 10.5533 31.1233 11.1C30.5233 11.6333 29.9899 12.26 29.5233 12.98C29.0699 13.6867 28.6433 14.4133 28.2433 15.16C28.1499 15.3467 28.0033 15.5467 27.8033 15.76C27.6033 15.96 27.3499 16.06 27.0433 16.06ZM23.0233 16.06C22.7433 16.06 22.5366 15.9667 22.4033 15.78C22.2833 15.5933 22.2233 15.3933 22.2233 15.18C22.2233 14.9667 22.2833 14.7133 22.4033 14.42C22.5233 14.1267 22.6566 13.84 22.8033 13.56C22.9633 13.2667 23.0899 13.02 23.1833 12.82C23.2233 12.74 23.2833 12.7 23.3633 12.7C23.4299 12.7 23.4833 12.7333 23.5233 12.8C23.5766 12.8533 23.5833 12.92 23.5433 13C23.4633 13.16 23.3499 13.38 23.2033 13.66C23.0566 13.94 22.9233 14.22 22.8033 14.5C22.6833 14.78 22.6233 15.0067 22.6233 15.18C22.6233 15.5 22.7566 15.66 23.0233 15.66C23.2899 15.66 23.5366 15.4867 23.7633 15.14C24.0033 14.7933 24.2699 14.3533 24.5633 13.82C24.8566 13.2867 25.2033 12.7333 25.6033 12.16C26.0033 11.5867 26.4899 11.0667 27.0633 10.6C27.6366 10.1333 28.3366 9.79333 29.1633 9.58H29.2233C29.3566 9.58 29.4233 9.64667 29.4233 9.78C29.4233 9.87333 29.3699 9.93333 29.2633 9.96C28.4366 10.1733 27.7166 10.5533 27.1033 11.1C26.5033 11.6333 25.9699 12.26 25.5033 12.98C25.0499 13.6867 24.6233 14.4133 24.2233 15.16C24.1299 15.3467 23.9833 15.5467 23.7833 15.76C23.5833 15.96 23.3299 16.06 23.0233 16.06ZM32.3633 16.08C32.0833 16.08 31.8033 16.0467 31.5233 15.98C31.2433 15.9 31.0033 15.76 30.8033 15.56C30.6166 15.3467 30.5233 15.0467 30.5233 14.66C30.5233 14.2333 30.6366 13.7733 30.8633 13.28C31.0899 12.7867 31.3566 12.3133 31.6633 11.86C31.9699 11.4067 32.2433 11.0333 32.4833 10.74C32.5233 10.6867 32.5699 10.66 32.6233 10.66C32.7033 10.66 32.7633 10.7 32.8033 10.78C32.8566 10.86 32.8499 10.9333 32.7833 11C32.5433 11.2933 32.2766 11.66 31.9833 12.1C31.6899 12.54 31.4366 12.9867 31.2233 13.44C31.0233 13.8933 30.9233 14.3 30.9233 14.66C30.9233 15.0467 31.0566 15.3133 31.3233 15.46C31.6033 15.6067 31.9499 15.68 32.3633 15.68C32.7899 15.68 33.2033 15.5933 33.6033 15.42C34.0166 15.2467 34.3966 15.0333 34.7433 14.78C34.7699 14.7533 34.8099 14.74 34.8633 14.74C34.9966 14.74 35.0633 14.8067 35.0633 14.94C35.0633 15.0067 35.0366 15.06 34.9833 15.1C34.6099 15.38 34.1966 15.6133 33.7433 15.8C33.3033 15.9867 32.8433 16.08 32.3633 16.08ZM38.4738 14.94C38.3804 14.94 38.2804 14.88 38.1738 14.76C38.0804 14.6267 38.0338 14.4267 38.0338 14.16C38.0338 13.88 38.0938 13.5733 38.2138 13.24C38.3338 12.8933 38.4804 12.5533 38.6538 12.22C38.8404 11.8733 39.0138 11.5733 39.1738 11.32C39.3471 11.0533 39.4804 10.86 39.5738 10.74C39.7738 10.4867 39.9471 10.2667 40.0938 10.08C40.2404 9.89333 40.3271 9.78 40.3538 9.74C40.4871 9.55333 40.5538 9.38 40.5538 9.22C40.5538 9.02 40.4604 8.86667 40.2738 8.76C40.1004 8.64 39.9071 8.58 39.6938 8.58C39.4671 8.58 39.2938 8.63333 39.1738 8.74C38.9871 8.91333 38.7871 9.12 38.5738 9.36C38.3738 9.58667 38.1604 9.85333 37.9338 10.16C37.6938 10.4667 37.4404 10.7933 37.1738 11.14C36.9071 11.4867 36.6004 11.86 36.2538 12.26C36.2138 12.3133 36.1604 12.34 36.0938 12.34C36.0271 12.34 35.9737 12.3067 35.9337 12.24C35.8804 12.16 35.8804 12.0867 35.9337 12.02C36.2804 11.6333 36.5871 11.26 36.8538 10.9C37.1338 10.54 37.3871 10.2133 37.6138 9.92C37.8538 9.61333 38.0738 9.34 38.2738 9.1C38.4871 8.84667 38.7004 8.62667 38.9138 8.44C39.1004 8.26667 39.3538 8.18 39.6738 8.18C39.9938 8.18 40.2871 8.28 40.5538 8.48C40.8338 8.66667 40.9738 8.91333 40.9738 9.22C40.9738 9.34 40.9338 9.48667 40.8538 9.66C40.7738 9.82 40.5871 10.0933 40.2938 10.48C39.5738 11.4267 39.0871 12.1733 38.8338 12.72C38.5804 13.2667 38.4538 13.7533 38.4538 14.18C38.4538 14.38 38.4938 14.5133 38.5738 14.58C38.6271 14.62 38.6538 14.6733 38.6538 14.74C38.6538 14.8733 38.5938 14.94 38.4738 14.94ZM39.2738 14.5C39.1404 14.5 39.0738 14.4333 39.0738 14.3C39.0738 14.22 39.1138 14.16 39.1938 14.12C39.8338 13.7733 40.3804 13.3 40.8338 12.7C41.2871 12.1 41.6871 11.4533 42.0338 10.76C42.3804 10.0667 42.7138 9.42 43.0338 8.82C43.1138 8.66 43.2271 8.54667 43.3738 8.48C43.5338 8.4 43.7004 8.36 43.8738 8.36C44.1804 8.36 44.4671 8.46 44.7338 8.66C45.0138 8.86 45.1538 9.11333 45.1538 9.42C45.1538 9.64667 45.0671 9.87333 44.8938 10.1C44.8538 10.1533 44.8004 10.18 44.7338 10.18C44.6671 10.18 44.6071 10.1467 44.5538 10.08C44.5138 10.0133 44.5204 9.94 44.5738 9.86C44.6938 9.7 44.7538 9.54667 44.7538 9.4C44.7538 9.2 44.6604 9.04667 44.4738 8.94C44.2871 8.83333 44.1004 8.78 43.9138 8.78C43.8071 8.78 43.7004 8.8 43.5938 8.84C43.5004 8.88 43.4338 8.94 43.3938 9.02C43.0604 9.64667 42.7138 10.32 42.3538 11.04C41.9938 11.7467 41.5738 12.4067 41.0938 13.02C40.6271 13.6333 40.0538 14.12 39.3738 14.48C39.3471 14.4933 39.3138 14.5 39.2738 14.5ZM38.0738 16.08C37.5938 16.0667 37.2071 15.9 36.9138 15.58C36.6338 15.26 36.4938 14.8267 36.4938 14.28C36.4938 14.1867 36.4938 14.0933 36.4938 14C36.5071 13.9067 36.5204 13.8133 36.5338 13.72C36.5738 13.52 36.6871 13.2067 36.8738 12.78C37.0604 12.3533 37.3004 11.9 37.5938 11.42C37.9004 10.9267 38.2204 10.5 38.5538 10.14C38.5938 10.0867 38.6404 10.06 38.6938 10.06C38.7738 10.06 38.8338 10.1 38.8738 10.18C38.9138 10.26 38.9004 10.3333 38.8338 10.4C38.5138 10.76 38.2138 11.1733 37.9338 11.64C37.6538 12.0933 37.4204 12.52 37.2338 12.92C37.0604 13.32 36.9604 13.6067 36.9338 13.78C36.9204 13.8733 36.9071 13.9667 36.8938 14.06C36.8938 14.14 36.8938 14.22 36.8938 14.3C36.8938 14.7667 37.0138 15.1133 37.2538 15.34C37.4938 15.5667 37.7871 15.68 38.1338 15.68C38.5604 15.68 39.0538 15.5 39.6138 15.14C40.1738 14.78 40.7204 14.2 41.2538 13.4C41.2938 13.3333 41.3471 13.3 41.4138 13.3C41.4804 13.3 41.5404 13.3333 41.5938 13.4C41.6471 13.4667 41.6404 13.5467 41.5738 13.64C41.0138 14.4667 40.4204 15.08 39.7938 15.48C39.1804 15.88 38.6071 16.08 38.0738 16.08ZM42.8938 14.94C42.8138 14.94 42.7538 14.9333 42.7138 14.92C42.5271 14.8533 42.3938 14.7533 42.3138 14.62C42.2471 14.4867 42.2138 14.3333 42.2138 14.16C42.2138 13.9333 42.2604 13.7 42.3538 13.46C42.4471 13.2067 42.5471 12.9667 42.6538 12.74C42.7738 12.5133 42.8671 12.34 42.9338 12.22C43.0804 11.94 43.2271 11.66 43.3738 11.38C43.5338 11.1 43.6804 10.8733 43.8138 10.7C43.8538 10.6467 43.9071 10.62 43.9738 10.62C44.0404 10.62 44.1004 10.6533 44.1538 10.72C44.2071 10.7867 44.2004 10.86 44.1338 10.94C43.8404 11.3267 43.5804 11.7533 43.3538 12.22C43.1271 12.6733 42.9138 13.12 42.7138 13.56C42.6338 13.7333 42.5938 13.9133 42.5938 14.1C42.5938 14.38 42.7004 14.52 42.9138 14.52C43.0204 14.52 43.1738 14.46 43.3738 14.34C43.8271 14.0467 44.2338 13.6867 44.5938 13.26C44.9538 12.8333 45.3004 12.42 45.6338 12.02C45.6738 11.9667 45.7204 11.94 45.7738 11.94C45.8538 11.94 45.9138 11.98 45.9538 12.06C46.0071 12.1267 46.0004 12.2 45.9338 12.28C45.8404 12.4 45.6738 12.6 45.4338 12.88C45.2071 13.16 44.9404 13.46 44.6338 13.78C44.3271 14.1 44.0204 14.3733 43.7138 14.6C43.4071 14.8267 43.1338 14.94 42.8938 14.94ZM42.2938 16.1C42.0404 16.1 41.7671 16.06 41.4738 15.98C41.1804 15.8867 40.9471 15.7133 40.7738 15.46C40.7471 15.4067 40.7338 15.3667 40.7338 15.34C40.7338 15.2067 40.8004 15.14 40.9338 15.14C41.0004 15.14 41.0538 15.1667 41.0938 15.22C41.2138 15.3933 41.3871 15.52 41.6138 15.6C41.8404 15.6667 42.0671 15.7 42.2938 15.7C42.6404 15.7 43.0271 15.6267 43.4538 15.48C43.8938 15.3333 44.3338 15.0933 44.7738 14.76C44.8004 14.7333 44.8404 14.72 44.8938 14.72C45.0271 14.72 45.0938 14.7867 45.0938 14.92C45.0938 14.9867 45.0671 15.04 45.0138 15.08C44.5471 15.44 44.0738 15.7 43.5938 15.86C43.1271 16.02 42.6938 16.1 42.2938 16.1ZM45.8008 12.34C45.7341 12.34 45.6808 12.3067 45.6408 12.24C45.5874 12.1733 45.5874 12.1 45.6408 12.02C45.9474 11.62 46.2474 11.18 46.5408 10.7C46.8474 10.2067 47.1074 9.75333 47.3208 9.34C47.5474 8.91333 47.7008 8.60667 47.7808 8.42C47.9941 7.9 48.2474 7.53333 48.5408 7.32C48.8341 7.09333 49.1141 6.98 49.3808 6.98C49.6741 6.98 49.9208 7.08 50.1208 7.28C50.3341 7.48 50.4408 7.73333 50.4408 8.04C50.4408 8.2 50.3874 8.4 50.2808 8.64C50.2408 8.72 50.1808 8.76 50.1008 8.76C50.0341 8.76 49.9741 8.73333 49.9208 8.68C49.8808 8.62667 49.8808 8.56 49.9208 8.48C49.9874 8.32 50.0208 8.18 50.0208 8.06C50.0208 7.87333 49.9608 7.71333 49.8408 7.58C49.7208 7.44667 49.5674 7.38 49.3808 7.38C49.1808 7.38 48.9674 7.47333 48.7408 7.66C48.5274 7.84667 48.3274 8.15333 48.1408 8.58C48.0608 8.78 47.9074 9.09333 47.6808 9.52C47.4541 9.94667 47.1874 10.4067 46.8808 10.9C46.5741 11.3933 46.2674 11.8467 45.9608 12.26C45.9208 12.3133 45.8674 12.34 45.8008 12.34ZM50.3808 14.72C50.2074 14.72 50.0608 14.68 49.9408 14.6C49.7141 14.4533 49.6008 14.24 49.6008 13.96C49.6008 13.6667 49.6941 13.3533 49.8808 13.02C50.0808 12.6733 50.2941 12.3533 50.5208 12.06C50.7608 11.7533 50.9274 11.5133 51.0208 11.34C51.1274 11.1667 51.2341 10.9933 51.3408 10.82C51.4474 10.6467 51.5008 10.46 51.5008 10.26C51.5008 10.1533 51.4674 10.0467 51.4008 9.94C51.3341 9.82 51.1941 9.72 50.9808 9.64C50.7674 9.54667 50.4274 9.5 49.9608 9.5C49.8674 9.5 49.7608 9.50667 49.6408 9.52C49.5208 9.53333 49.3874 9.54 49.2408 9.54H49.2208C49.0874 9.54 49.0208 9.47333 49.0208 9.34C49.0208 9.20667 49.0808 9.14 49.2008 9.14C49.3074 9.12667 49.4208 9.12 49.5408 9.12C49.6608 9.10667 49.7741 9.1 49.8808 9.1C50.4008 9.1 50.8674 9.18 51.2808 9.34C51.7074 9.48667 51.9208 9.77333 51.9208 10.2C51.9208 10.4667 51.8274 10.7667 51.6408 11.1C51.4008 11.5533 51.1208 11.98 50.8008 12.38C50.4941 12.7667 50.2408 13.1933 50.0408 13.66C50.0274 13.7 50.0141 13.74 50.0008 13.78C50.0008 13.82 50.0008 13.86 50.0008 13.9C50.0008 14.0733 50.0541 14.1933 50.1608 14.26C50.2274 14.3 50.3008 14.32 50.3808 14.32C50.5808 14.32 50.8208 14.2267 51.1008 14.04C51.3941 13.84 51.6874 13.6067 51.9808 13.34C52.2874 13.06 52.5608 12.8 52.8008 12.56C53.0408 12.3067 53.2074 12.12 53.3008 12C53.3408 11.9467 53.3874 11.92 53.4408 11.92C53.5074 11.92 53.5674 11.96 53.6208 12.04C53.6741 12.1067 53.6674 12.18 53.6008 12.26C53.4541 12.4467 53.1808 12.74 52.7808 13.14C52.3808 13.5267 51.9674 13.8867 51.5408 14.22C51.1141 14.5533 50.7274 14.72 50.3808 14.72ZM45.6608 14.1C45.5808 14.1 45.5208 14.06 45.4808 13.98C45.4274 13.9 45.4408 13.8267 45.5208 13.76C45.9608 13.3333 46.3808 12.86 46.7808 12.34C47.1808 11.8067 47.5208 11.32 47.8008 10.88C48.0941 10.44 48.2741 10.1333 48.3408 9.96C48.3808 9.88 48.4408 9.84 48.5208 9.84C48.5874 9.84 48.6408 9.86667 48.6808 9.92C48.7208 9.97333 48.7274 10.04 48.7008 10.12C48.6341 10.3067 48.4541 10.6267 48.1608 11.08C47.8674 11.5333 47.5141 12.0333 47.1008 12.58C46.6874 13.1133 46.2541 13.6 45.8008 14.04C45.7608 14.08 45.7141 14.1 45.6608 14.1ZM49.4008 16.2C48.9474 16.2 48.5474 16.0867 48.2008 15.86C47.8674 15.6333 47.7008 15.2533 47.7008 14.72C47.7008 14.2933 47.8208 13.8267 48.0608 13.32C48.3008 12.8 48.5808 12.3 48.9008 11.82C49.2208 11.3267 49.5074 10.9067 49.7608 10.56C49.8008 10.5067 49.8541 10.48 49.9208 10.48C49.9874 10.48 50.0474 10.5133 50.1008 10.58C50.1541 10.6467 50.1474 10.72 50.0808 10.8C49.8541 11.12 49.5808 11.5133 49.2608 11.98C48.9541 12.4467 48.6808 12.9267 48.4408 13.42C48.2141 13.9 48.1008 14.3333 48.1008 14.72C48.1008 15.08 48.2074 15.3533 48.4208 15.54C48.6474 15.7133 48.9474 15.8 49.3208 15.8C49.8008 15.8 50.3208 15.6733 50.8808 15.42C51.4541 15.1667 51.8941 14.8467 52.2008 14.46C52.2408 14.4067 52.2941 14.38 52.3608 14.38C52.4274 14.38 52.4874 14.42 52.5408 14.5C52.5941 14.5667 52.5874 14.6333 52.5208 14.7C52.1608 15.1267 51.6874 15.4867 51.1008 15.78C50.5141 16.06 49.9474 16.2 49.4008 16.2ZM79.2836 9.56C79.2303 9.56 79.1769 9.54 79.1236 9.5C79.0836 9.44667 79.0703 9.38 79.0836 9.3C79.2303 8.67333 79.4703 8.05333 79.8036 7.44C80.1369 6.81333 80.5369 6.24 81.0036 5.72C81.4703 5.2 81.9769 4.77333 82.5236 4.44C82.6303 4.37333 82.7103 4.34 82.7636 4.34C82.9103 4.34 83.1303 4.38 83.4236 4.46C83.7169 4.54 84.1103 4.58 84.6036 4.58C84.6969 4.58 84.7703 4.55333 84.8236 4.5C84.8769 4.44667 84.9036 4.39333 84.9036 4.34C84.9036 4.14 84.7103 3.94667 84.3236 3.76C83.9503 3.57333 83.4369 3.40667 82.7836 3.26C82.1436 3.1 81.4169 2.95333 80.6036 2.82C79.8036 2.68667 78.9703 2.56667 78.1036 2.46C77.2503 2.35333 76.4236 2.26667 75.6236 2.2C74.8236 2.13333 74.0969 2.08 73.4436 2.04C72.8036 2 72.3036 1.98 71.9436 1.98C71.5836 1.98 71.1103 2 70.5236 2.04C69.9369 2.06667 69.3103 2.14 68.6436 2.26C67.9769 2.36667 67.3436 2.53333 66.7436 2.76C66.1569 2.97333 65.6703 3.26 65.2836 3.62C64.9103 3.96667 64.7236 4.41333 64.7236 4.96C64.7236 5.01333 64.7369 5.08667 64.7636 5.18C64.7903 5.27333 64.8369 5.32 64.9036 5.32C64.9836 5.32 65.0636 5.27333 65.1436 5.18C65.2236 5.07333 65.2903 4.98667 65.3436 4.92C65.8636 4.25333 66.4703 3.76667 67.1636 3.46C67.8703 3.15333 68.6169 2.96 69.4036 2.88C70.1903 2.8 70.9636 2.76 71.7236 2.76C73.3636 2.76 75.0636 2.85333 76.8236 3.04C78.5969 3.22667 80.2769 3.54667 81.8636 4C81.9703 4.04 82.0236 4.10667 82.0236 4.2C82.0236 4.25333 81.9969 4.30667 81.9436 4.36C81.9036 4.4 81.8436 4.41333 81.7636 4.4C80.1903 3.96 78.5303 3.64667 76.7836 3.46C75.0369 3.26 73.3503 3.16 71.7236 3.16C70.9503 3.16 70.1903 3.2 69.4436 3.28C68.6969 3.34667 67.9903 3.53333 67.3236 3.84C66.6703 4.14667 66.0769 4.64 65.5436 5.32C65.4636 5.41333 65.3703 5.50667 65.2636 5.6C65.1703 5.68 65.0503 5.72 64.9036 5.72C64.6903 5.72 64.5369 5.64 64.4436 5.48C64.3636 5.30667 64.3236 5.13333 64.3236 4.96C64.3236 4.34667 64.5169 3.84 64.9036 3.44C65.2903 3.02667 65.7903 2.7 66.4036 2.46C67.0303 2.20667 67.6903 2.02 68.3836 1.9C69.0769 1.76667 69.7369 1.68 70.3636 1.64C71.0036 1.6 71.5303 1.58 71.9436 1.58C72.2369 1.58 72.6969 1.6 73.3236 1.64C73.9503 1.66667 74.6703 1.71333 75.4836 1.78C76.3103 1.84667 77.1703 1.93333 78.0636 2.04C78.9569 2.14667 79.8303 2.27333 80.6836 2.42C81.5503 2.56667 82.3303 2.73333 83.0236 2.92C83.7169 3.10667 84.2703 3.32 84.6836 3.56C85.0969 3.8 85.3036 4.06 85.3036 4.34C85.3036 4.52667 85.2303 4.68 85.0836 4.8C84.9369 4.90667 84.7903 4.96 84.6436 4.96C84.3369 4.96 84.0236 4.94 83.7036 4.9C83.3969 4.84667 83.0903 4.79333 82.7836 4.74C82.2636 5.04667 81.7769 5.45333 81.3236 5.96C80.8703 6.46667 80.4836 7.02 80.1636 7.62C79.8436 8.20667 79.6103 8.8 79.4636 9.4C79.4369 9.50667 79.3769 9.56 79.2836 9.56ZM83.9036 14.6C83.6103 14.6 83.3169 14.52 83.0236 14.36C82.7303 14.2 82.5836 13.92 82.5836 13.52C82.5836 13.1867 82.7369 12.7667 83.0436 12.26C83.3636 11.7533 83.7836 11.2067 84.3036 10.62C84.8369 10.02 85.4236 9.41333 86.0636 8.8C86.7169 8.18667 87.3769 7.6 88.0436 7.04C88.7236 6.48 89.3636 5.98667 89.9636 5.56C90.5769 5.12 91.0969 4.78667 91.5236 4.56C91.8836 4.37333 92.2569 4.22 92.6436 4.1C93.0436 3.98 93.4569 3.92 93.8836 3.92C94.2703 3.92 94.6503 3.96667 95.0236 4.06C95.3969 4.15333 95.7703 4.2 96.1436 4.2C96.2503 4.2 96.4103 4.17333 96.6236 4.12C96.8503 4.05333 96.9636 3.94 96.9636 3.78C96.9636 3.59333 96.8169 3.44667 96.5236 3.34C96.2303 3.23333 95.8769 3.16 95.4636 3.12C95.0636 3.06667 94.6903 3.03333 94.3436 3.02C94.0103 3.00667 93.7969 3 93.7036 3C92.2636 3 90.8303 3.19333 89.4036 3.58C87.9769 3.95333 86.6569 4.54667 85.4436 5.36C84.2969 6.12 83.2569 6.94667 82.3236 7.84C81.3903 8.72 80.4303 9.63333 79.4436 10.58C79.0703 10.9267 78.7036 11.2667 78.3436 11.6C77.9836 11.9333 77.6569 12.22 77.3636 12.46C77.0703 12.6867 76.8436 12.8333 76.6836 12.9C76.6703 12.9133 76.6436 12.92 76.6036 12.92C76.5503 12.92 76.5036 12.9 76.4636 12.86C76.4369 12.8067 76.4236 12.7533 76.4236 12.7C76.4236 12.62 76.4636 12.56 76.5436 12.52C76.7036 12.4533 76.9569 12.2733 77.3036 11.98C77.6636 11.6867 78.0636 11.3333 78.5036 10.92C78.9436 10.4933 79.3903 10.0667 79.8436 9.64C80.2969 9.2 80.7036 8.8 81.0636 8.44C81.4369 8.06667 81.7236 7.79333 81.9236 7.62C82.4436 7.15333 82.9769 6.7 83.5236 6.26C84.0836 5.82 84.6503 5.40667 85.2236 5.02C86.4636 4.19333 87.8169 3.58667 89.2836 3.2C90.7503 2.8 92.2236 2.6 93.7036 2.6C93.8369 2.6 94.0436 2.60667 94.3236 2.62C94.6169 2.62 94.9303 2.64 95.2636 2.68C95.6103 2.70667 95.9436 2.76667 96.2636 2.86C96.5836 2.94 96.8436 3.05333 97.0436 3.2C97.2569 3.34667 97.3636 3.54 97.3636 3.78C97.3636 4.08667 97.2169 4.3 96.9236 4.42C96.6436 4.54 96.3836 4.6 96.1436 4.6C95.7703 4.6 95.3969 4.55333 95.0236 4.46C94.6503 4.36667 94.2703 4.32 93.8836 4.32C93.1103 4.32 92.3836 4.52 91.7036 4.92C91.0236 5.30667 90.3703 5.73333 89.7436 6.2C89.4903 6.38667 89.1503 6.65333 88.7236 7C88.2969 7.34667 87.8303 7.74667 87.3236 8.2C86.8169 8.65333 86.3103 9.13333 85.8036 9.64C85.2969 10.1333 84.8303 10.6267 84.4036 11.12C83.9769 11.6 83.6303 12.0467 83.3636 12.46C83.1103 12.8733 82.9836 13.2267 82.9836 13.52C82.9836 13.7467 83.0703 13.92 83.2436 14.04C83.4303 14.1467 83.6503 14.2 83.9036 14.2C84.2769 14.2 84.6903 14.0867 85.1436 13.86C85.5969 13.62 86.0303 13.3333 86.4436 13C86.8569 12.6533 87.1769 12.3267 87.4036 12.02C87.4436 11.9667 87.4903 11.94 87.5436 11.94C87.6236 11.94 87.6903 11.98 87.7436 12.06C87.7969 12.1267 87.7903 12.1933 87.7236 12.26C87.4836 12.58 87.1436 12.9267 86.7036 13.3C86.2769 13.66 85.8103 13.9667 85.3036 14.22C84.8103 14.4733 84.3436 14.6 83.9036 14.6ZM74.2436 15.4C74.0836 15.4 73.9236 15.3533 73.7636 15.26C73.6036 15.1667 73.5236 15.0067 73.5236 14.78C73.5236 14.4733 73.6236 14.2333 73.8236 14.06C74.0369 13.8867 74.2569 13.74 74.4836 13.62C74.9369 13.3667 75.3369 12.9867 75.6836 12.48C76.0303 11.96 76.3503 11.3867 76.6436 10.76C76.9503 10.12 77.2436 9.48667 77.5236 8.86C77.8169 8.23333 78.1236 7.68 78.4436 7.2C78.7636 6.72 79.1236 6.38667 79.5236 6.2C79.5369 6.18667 79.5636 6.18 79.6036 6.18C79.7369 6.18 79.8036 6.25333 79.8036 6.4C79.8036 6.46667 79.7636 6.52 79.6836 6.56C79.3236 6.73333 78.9903 7.05333 78.6836 7.52C78.3903 7.98667 78.1036 8.53333 77.8236 9.16C77.5436 9.77333 77.2503 10.4 76.9436 11.04C76.6369 11.6667 76.2969 12.2467 75.9236 12.78C75.5636 13.3 75.1436 13.6933 74.6636 13.96C74.5169 14.04 74.3569 14.1467 74.1836 14.28C74.0103 14.4 73.9236 14.5667 73.9236 14.78C73.9236 14.9267 74.0303 15 74.2436 15C74.6303 15 75.0769 14.8533 75.5836 14.56C76.0903 14.2533 76.6369 13.8467 77.2236 13.34C77.8236 12.8333 78.4569 12.2667 79.1236 11.64C79.7769 11.0133 80.4636 10.36 81.1836 9.68C81.9036 8.98667 82.6369 8.31333 83.3836 7.66C84.1436 7.00667 84.9103 6.40667 85.6836 5.86C86.4569 5.31333 87.2236 4.86667 87.9836 4.52C88.4636 4.29333 88.9303 4.1 89.3836 3.94C89.8503 3.78 90.3236 3.7 90.8036 3.7C90.9369 3.7 91.0036 3.76667 91.0036 3.9C91.0036 4.03333 90.9369 4.1 90.8036 4.1C89.9236 4.16667 89.0303 4.42667 88.1236 4.88C87.2169 5.32 86.3103 5.88 85.4036 6.56C84.5103 7.22667 83.6303 7.96 82.7636 8.76C81.8969 9.54667 81.0569 10.3333 80.2436 11.12C79.4303 11.8933 78.6569 12.6067 77.9236 13.26C77.2036 13.9 76.5303 14.42 75.9036 14.82C75.2769 15.2067 74.7236 15.4 74.2436 15.4ZM63.6436 16.7C63.0969 16.7 62.4969 16.6333 61.8436 16.5C61.2036 16.3667 60.5903 16.1467 60.0036 15.84C59.4169 15.5333 58.9369 15.1333 58.5636 14.64C58.1903 14.1333 58.0036 13.52 58.0036 12.8C58.0036 12.1467 58.1703 11.5533 58.5036 11.02C58.8503 10.4733 59.3036 9.99333 59.8636 9.58C60.4236 9.15333 61.0303 8.79333 61.6836 8.5C62.3369 8.20667 62.9903 7.98667 63.6436 7.84C64.2969 7.69333 64.8769 7.62 65.3836 7.62C65.9703 7.62 66.5903 7.67333 67.2436 7.78C67.8969 7.87333 68.5103 8.02667 69.0836 8.24C69.6569 8.45333 70.1236 8.72667 70.4836 9.06C70.8436 9.39333 71.0236 9.8 71.0236 10.28C71.0236 10.4933 70.9703 10.6533 70.8636 10.76C70.7703 10.8667 70.6569 10.92 70.5236 10.92C70.4303 10.92 70.3303 10.8867 70.2236 10.82C70.1303 10.74 70.0303 10.6533 69.9236 10.56C69.2836 10.04 68.6369 9.64 67.9836 9.36C67.3303 9.08 66.5703 8.94 65.7036 8.94C65.3036 8.94 64.8436 8.99333 64.3236 9.1C63.8036 9.20667 63.2703 9.36667 62.7236 9.58C62.1903 9.78 61.6903 10.0267 61.2236 10.32C60.7703 10.6 60.4036 10.9267 60.1236 11.3C59.8436 11.6733 59.7036 12.08 59.7036 12.52C59.7036 13.2133 59.8903 13.7533 60.2636 14.14C60.6369 14.5267 61.1169 14.8067 61.7036 14.98C62.3036 15.14 62.9169 15.22 63.5436 15.22C64.3303 15.22 65.1236 15.06 65.9236 14.74C66.7369 14.4067 67.5236 13.98 68.2836 13.46C69.0569 12.9267 69.7836 12.3533 70.4636 11.74C71.1436 11.1267 71.7436 10.54 72.2636 9.98C72.4903 9.74 72.8169 9.4 73.2436 8.96C73.6836 8.50667 74.1769 8.02 74.7236 7.5C75.2703 6.98 75.8303 6.48667 76.4036 6.02C76.9769 5.55333 77.5103 5.16667 78.0036 4.86C78.5103 4.55333 78.9303 4.4 79.2636 4.4H79.3036C79.4369 4.4 79.5036 4.46667 79.5036 4.6C79.5036 4.70667 79.4436 4.77333 79.3236 4.8C79.0303 4.84 78.6436 5.01333 78.1636 5.32C77.6969 5.61333 77.1903 5.98667 76.6436 6.44C76.0969 6.89333 75.5503 7.36667 75.0036 7.86C74.4703 8.35333 73.9836 8.81333 73.5436 9.24C73.1169 9.66667 72.7903 10.0067 72.5636 10.26C72.0436 10.82 71.4369 11.4133 70.7436 12.04C70.0503 12.6533 69.3036 13.2333 68.5036 13.78C67.7169 14.3267 66.9036 14.7733 66.0636 15.12C65.2236 15.4533 64.3836 15.62 63.5436 15.62C63.0636 15.62 62.5769 15.5733 62.0836 15.48C61.5903 15.3867 61.1303 15.2267 60.7036 15C60.2903 14.76 59.9503 14.44 59.6836 14.04C59.4303 13.64 59.3036 13.1333 59.3036 12.52C59.3036 11.9867 59.4569 11.5133 59.7636 11.1C60.0836 10.6733 60.4903 10.3 60.9836 9.98C61.4903 9.66 62.0303 9.39333 62.6036 9.18C63.1903 8.96667 63.7569 8.80667 64.3036 8.7C64.8503 8.59333 65.3169 8.54 65.7036 8.54C66.6236 8.54 67.4303 8.69333 68.1236 9C68.8169 9.29333 69.4969 9.71333 70.1636 10.26C70.2303 10.3 70.2969 10.3533 70.3636 10.42C70.4303 10.4867 70.4903 10.52 70.5436 10.52C70.6103 10.52 70.6436 10.44 70.6436 10.28C70.6436 9.88 70.4636 9.54 70.1036 9.26C69.7569 8.96667 69.3036 8.73333 68.7436 8.56C68.1969 8.37333 67.6236 8.24 67.0236 8.16C66.4236 8.06667 65.8769 8.02 65.3836 8.02C64.8769 8.02 64.3103 8.09333 63.6836 8.24C63.0569 8.38667 62.4369 8.6 61.8236 8.88C61.2103 9.16 60.6436 9.5 60.1236 9.9C59.6036 10.2867 59.1836 10.7267 58.8636 11.22C58.5569 11.7 58.4036 12.2267 58.4036 12.8C58.4036 13.4267 58.5636 13.96 58.8836 14.4C59.2169 14.84 59.6503 15.2 60.1836 15.48C60.7169 15.76 61.2836 15.9667 61.8836 16.1C62.4969 16.2333 63.0836 16.3 63.6436 16.3C64.4303 16.3 65.2569 16.1267 66.1236 15.78C67.0036 15.42 67.8703 14.9667 68.7236 14.42C69.5769 13.86 70.3769 13.2667 71.1236 12.64C71.8703 12.0133 72.5169 11.4267 73.0636 10.88C73.4503 10.4933 73.8903 10.0533 74.3836 9.56C74.8769 9.05333 75.4036 8.54 75.9636 8.02C76.5369 7.48667 77.1169 6.98667 77.7036 6.52C78.3036 6.04 78.8903 5.63333 79.4636 5.3C80.0503 4.95333 80.6103 4.72 81.1436 4.6H81.2036C81.3236 4.6 81.3836 4.66667 81.3836 4.8C81.3836 4.89333 81.3303 4.95333 81.2236 4.98C80.7169 5.1 80.1769 5.32667 79.6036 5.66C79.0436 5.99333 78.4703 6.4 77.8836 6.88C77.2969 7.34667 76.7236 7.84 76.1636 8.36C75.6169 8.88 75.1036 9.38667 74.6236 9.88C74.1436 10.36 73.7169 10.7867 73.3436 11.16C72.8103 11.7067 72.1636 12.3 71.4036 12.94C70.6436 13.5667 69.8236 14.1667 68.9436 14.74C68.0636 15.3133 67.1703 15.78 66.2636 16.14C65.3569 16.5133 64.4836 16.7 63.6436 16.7ZM83.3436 15.98C83.0103 15.98 82.6569 15.9267 82.2836 15.82C81.9103 15.7 81.5903 15.5133 81.3236 15.26C81.0569 14.9933 80.9236 14.6333 80.9236 14.18C80.9236 13.5267 81.0969 12.86 81.4436 12.18C81.8036 11.5 82.2636 10.8267 82.8236 10.16C83.3969 9.49333 84.0169 8.86 84.6836 8.26C85.3503 7.66 86.0036 7.10667 86.6436 6.6C87.2836 6.09333 87.8369 5.66667 88.3036 5.32C88.3303 5.29333 88.3703 5.28 88.4236 5.28C88.5569 5.28 88.6236 5.34667 88.6236 5.48C88.6236 5.54667 88.5969 5.6 88.5436 5.64C88.0503 6 87.4836 6.43333 86.8436 6.94C86.2169 7.43333 85.5836 7.97333 84.9436 8.56C84.3036 9.14667 83.7036 9.76 83.1436 10.4C82.5969 11.04 82.1569 11.68 81.8236 12.32C81.4903 12.96 81.3236 13.58 81.3236 14.18C81.3236 14.5 81.4236 14.7667 81.6236 14.98C81.8236 15.18 82.0769 15.3333 82.3836 15.44C82.7036 15.5333 83.0236 15.58 83.3436 15.58C83.8369 15.58 84.3169 15.4867 84.7836 15.3C85.2636 15.1133 85.6969 14.8733 86.0836 14.58C86.1103 14.5533 86.1503 14.54 86.2036 14.54C86.3369 14.54 86.4036 14.6067 86.4036 14.74C86.4036 14.8067 86.3769 14.86 86.3236 14.9C85.9103 15.22 85.4436 15.48 84.9236 15.68C84.4169 15.88 83.8903 15.98 83.3436 15.98ZM93.0586 7.96C92.7386 7.96 92.4653 7.84667 92.2386 7.62C92.0119 7.39333 91.8986 7.12 91.8986 6.8C91.8986 6.46667 92.0119 6.18667 92.2386 5.96C92.4653 5.73333 92.7386 5.62 93.0586 5.62C93.3919 5.62 93.6719 5.73333 93.8986 5.96C94.1253 6.18667 94.2386 6.46667 94.2386 6.8C94.2386 7.12 94.1253 7.39333 93.8986 7.62C93.6719 7.84667 93.3919 7.96 93.0586 7.96ZM93.0586 7.56C93.2853 7.56 93.4719 7.48667 93.6186 7.34C93.7653 7.19333 93.8386 7.01333 93.8386 6.8C93.8386 6.57333 93.7653 6.38667 93.6186 6.24C93.4719 6.09333 93.2853 6.02 93.0586 6.02C92.8453 6.02 92.6653 6.09333 92.5186 6.24C92.3719 6.38667 92.2986 6.57333 92.2986 6.8C92.2986 7.01333 92.3719 7.19333 92.5186 7.34C92.6653 7.48667 92.8453 7.56 93.0586 7.56ZM90.3586 14.88C90.1053 14.88 89.9253 14.7867 89.8186 14.6C89.7253 14.4133 89.6786 14.2067 89.6786 13.98C89.6786 13.7933 89.7253 13.5267 89.8186 13.18C89.9119 12.8333 90.0386 12.46 90.1986 12.06C90.3719 11.6467 90.5653 11.2667 90.7786 10.92C90.9919 10.56 91.2119 10.2733 91.4386 10.06C91.5586 9.94 91.6853 9.83333 91.8186 9.74C91.9519 9.55333 92.0186 9.38 92.0186 9.22C92.0186 9.02 91.9253 8.86667 91.7386 8.76C91.5653 8.64 91.3719 8.58 91.1586 8.58C90.9319 8.58 90.7586 8.63333 90.6386 8.74C90.4519 8.91333 90.2519 9.12 90.0386 9.36C89.8386 9.58667 89.6253 9.85333 89.3986 10.16C89.1586 10.4667 88.9053 10.8 88.6386 11.16C88.3719 11.5067 88.0653 11.88 87.7186 12.28C87.6786 12.3333 87.6253 12.36 87.5586 12.36C87.4919 12.36 87.4386 12.32 87.3986 12.24C87.3453 12.16 87.3453 12.0867 87.3986 12.02C87.7453 11.6333 88.0519 11.26 88.3186 10.9C88.5986 10.54 88.8519 10.2133 89.0786 9.92C89.3186 9.61333 89.5386 9.34 89.7386 9.1C89.9519 8.84667 90.1653 8.62667 90.3786 8.44C90.5786 8.25333 90.8253 8.16 91.1186 8.16C91.4653 8.16 91.7786 8.28 92.0586 8.52C92.3386 8.74667 92.4786 9.01333 92.4786 9.32C92.4786 9.58667 92.3386 9.83333 92.0586 10.06L91.9586 10.14C91.8253 10.26 91.6853 10.3867 91.5386 10.52C91.4053 10.6533 91.2919 10.8 91.1986 10.96C91.0519 11.2667 90.8853 11.6067 90.6986 11.98C90.5253 12.34 90.3719 12.7 90.2386 13.06C90.1186 13.42 90.0586 13.74 90.0586 14.02C90.0586 14.3267 90.1853 14.48 90.4386 14.48C90.5586 14.48 90.7053 14.4467 90.8786 14.38C91.2919 14.2067 91.7186 13.9333 92.1586 13.56C92.5986 13.1867 93.0719 12.6733 93.5786 12.02C93.6186 11.9667 93.6653 11.94 93.7186 11.94C93.7986 11.94 93.8653 11.98 93.9186 12.06C93.9719 12.1267 93.9653 12.1933 93.8986 12.26C93.4853 12.7933 93.0986 13.2267 92.7386 13.56C92.3919 13.8933 91.9853 14.1933 91.5186 14.46C91.2653 14.6067 91.0453 14.7133 90.8586 14.78C90.6719 14.8467 90.5053 14.88 90.3586 14.88ZM90.2586 16.1C89.6053 16.1 89.0919 15.8733 88.7186 15.42C88.3586 14.9667 88.2053 14.4067 88.2586 13.74C88.2719 13.54 88.3319 13.26 88.4386 12.9C88.5453 12.5267 88.6786 12.1533 88.8386 11.78C89.0119 11.3933 89.1853 11.08 89.3586 10.84C89.3986 10.7867 89.4519 10.76 89.5186 10.76C89.5853 10.76 89.6453 10.7933 89.6986 10.86C89.7519 10.9267 89.7453 11 89.6786 11.08C89.5186 11.2933 89.3586 11.58 89.1986 11.94C89.0519 12.3 88.9253 12.6533 88.8186 13C88.7253 13.3467 88.6719 13.6067 88.6586 13.78C88.6186 14.2733 88.7386 14.72 89.0186 15.12C89.2986 15.52 89.7186 15.72 90.2786 15.72C90.6253 15.72 91.0319 15.62 91.4986 15.42C91.9653 15.2067 92.4719 14.8533 93.0186 14.36C93.0453 14.3333 93.0853 14.32 93.1386 14.32C93.2319 14.32 93.2986 14.3667 93.3386 14.46C93.3919 14.54 93.3786 14.6133 93.2986 14.68C92.7253 15.1867 92.1786 15.5533 91.6586 15.78C91.1519 15.9933 90.6853 16.1 90.2586 16.1ZM95.3905 13.2C95.3371 13.2 95.2838 13.1733 95.2305 13.12C95.1771 13.0533 95.1705 12.9867 95.2105 12.92C95.3705 12.5867 95.6238 12.16 95.9705 11.64C96.3305 11.12 96.7505 10.56 97.2305 9.96C97.7105 9.34667 98.2238 8.74 98.7705 8.14C99.3305 7.52667 99.8971 6.97333 100.47 6.48C101.044 5.97333 101.597 5.57333 102.13 5.28C102.677 4.97333 103.17 4.82 103.61 4.82C103.73 4.82 103.897 4.81333 104.11 4.8C104.324 4.77333 104.43 4.66667 104.43 4.48C104.43 4.29333 104.304 4.14 104.05 4.02C103.81 3.88667 103.57 3.82 103.33 3.82C102.837 3.82 102.304 3.98 101.73 4.3C101.17 4.60667 100.59 5.02 99.9905 5.54C99.3905 6.06 98.7905 6.63333 98.1905 7.26C97.6038 7.88667 97.0371 8.52 96.4905 9.16C95.9571 9.78667 95.4638 10.3733 95.0105 10.92C94.5705 11.4667 94.1971 11.92 93.8905 12.28C93.8505 12.3333 93.7971 12.36 93.7305 12.36C93.6638 12.36 93.6105 12.32 93.5705 12.24C93.5171 12.16 93.5171 12.0867 93.5705 12.02C93.9038 11.6467 94.2971 11.18 94.7505 10.62C95.2171 10.0467 95.7238 9.44 96.2705 8.8C96.8305 8.14667 97.4105 7.50667 98.0105 6.88C98.6105 6.24 99.2171 5.66 99.8305 5.14C100.444 4.62 101.044 4.20667 101.63 3.9C102.23 3.58 102.797 3.42 103.33 3.42C103.49 3.42 103.684 3.45333 103.91 3.52C104.15 3.58667 104.364 3.7 104.55 3.86C104.737 4.00667 104.83 4.21333 104.83 4.48C104.83 4.72 104.764 4.89333 104.63 5C104.497 5.09333 104.337 5.15333 104.15 5.18C103.964 5.20667 103.784 5.22 103.61 5.22C103.224 5.22 102.777 5.36667 102.27 5.66C101.764 5.94 101.237 6.32 100.69 6.8C100.157 7.28 99.6171 7.81333 99.0705 8.4C98.5371 8.98667 98.0371 9.57333 97.5705 10.16C97.1038 10.7467 96.6971 11.3 96.3505 11.82C96.0038 12.3267 95.7438 12.7467 95.5705 13.08C95.5305 13.16 95.4705 13.2 95.3905 13.2ZM99.2905 14.62C98.9305 14.62 98.6638 14.5333 98.4905 14.36C98.3171 14.1867 98.1705 13.9867 98.0505 13.76C97.9438 13.52 97.8171 13.3133 97.6705 13.14C97.5238 12.9667 97.3105 12.88 97.0305 12.88C96.8971 12.88 96.8305 12.8133 96.8305 12.68C96.8305 12.5467 96.8971 12.48 97.0305 12.48C97.3905 12.48 97.6571 12.5667 97.8305 12.74C98.0171 12.9133 98.1638 13.12 98.2705 13.36C98.3905 13.5867 98.5171 13.7867 98.6505 13.96C98.7971 14.1333 99.0105 14.22 99.2905 14.22C99.5971 14.22 99.9171 14.0867 100.25 13.82C100.584 13.5533 100.897 13.2467 101.19 12.9C101.484 12.54 101.71 12.2467 101.87 12.02C101.91 11.9667 101.957 11.94 102.01 11.94C102.077 11.94 102.137 11.9733 102.19 12.04C102.257 12.1067 102.257 12.18 102.19 12.26C102.004 12.5267 101.75 12.8467 101.43 13.22C101.124 13.5933 100.784 13.92 100.41 14.2C100.037 14.48 99.6638 14.62 99.2905 14.62ZM91.6305 21.28C91.5771 21.28 91.5305 21.26 91.4905 21.22C91.4371 21.18 91.4171 21.1267 91.4305 21.06C91.4838 20.0867 91.6838 19.1733 92.0305 18.32C92.3771 17.4667 92.8038 16.7133 93.3105 16.06C93.8171 15.42 94.3305 14.92 94.8505 14.56C95.3705 14.1867 95.8305 14 96.2305 14C96.5238 14 96.7371 14.0867 96.8705 14.26C97.0038 14.42 97.0705 14.6467 97.0705 14.94C97.0705 15.2867 96.9838 15.6867 96.8105 16.14C96.6371 16.6067 96.3971 17.08 96.0905 17.56C95.7838 18.04 95.4371 18.4867 95.0505 18.9C94.6638 19.3133 94.2571 19.6467 93.8305 19.9C93.4171 20.1533 93.0038 20.28 92.5905 20.28C92.4571 20.28 92.3905 20.2133 92.3905 20.08C92.3905 19.9467 92.4571 19.88 92.5905 19.88C92.9771 19.88 93.3838 19.7267 93.8105 19.42C94.2505 19.1267 94.6705 18.74 95.0705 18.26C95.4838 17.7933 95.8305 17.2933 96.1105 16.76C96.3905 16.2267 96.5705 15.72 96.6505 15.24C96.6638 15.1867 96.6705 15.14 96.6705 15.1C96.6705 15.0467 96.6705 15 96.6705 14.96C96.6705 14.5867 96.5238 14.4 96.2305 14.4C95.9105 14.4 95.5171 14.5733 95.0505 14.92C94.5838 15.2533 94.1171 15.72 93.6505 16.32C93.1705 16.9333 92.7638 17.6467 92.4305 18.46C92.0838 19.2733 91.8838 20.1533 91.8305 21.1C91.8305 21.22 91.7638 21.28 91.6305 21.28ZM91.6905 22.28C91.0105 22.28 90.5371 22.1133 90.2705 21.78C89.9905 21.4467 89.8505 21.02 89.8505 20.5C89.8505 20.0067 89.9438 19.4667 90.1305 18.88C90.3171 18.2933 90.5571 17.7133 90.8505 17.14C91.1305 16.5667 91.4171 16.0467 91.7105 15.58C92.0038 15.1 92.2571 14.7333 92.4705 14.48C92.5105 14.44 92.5571 14.42 92.6105 14.42C92.6771 14.42 92.7371 14.46 92.7905 14.54C92.8305 14.6067 92.8171 14.68 92.7505 14.76C92.5638 14.9867 92.3305 15.3267 92.0505 15.78C91.7705 16.22 91.4971 16.7133 91.2305 17.26C90.9505 17.82 90.7171 18.3733 90.5305 18.92C90.3438 19.48 90.2505 19.9867 90.2505 20.44C90.2505 20.8667 90.3571 21.2133 90.5705 21.48C90.7838 21.7467 91.1571 21.88 91.6905 21.88C92.2105 21.88 92.7505 21.76 93.3105 21.52C93.8705 21.28 94.4105 20.9467 94.9305 20.52C95.4505 20.1067 95.9171 19.64 96.3305 19.12C96.7438 18.6133 97.0705 18.08 97.3105 17.52C97.5638 16.96 97.6905 16.4133 97.6905 15.88C97.6905 15.7467 97.7571 15.68 97.8905 15.68C98.3171 15.68 98.8038 15.5933 99.3505 15.42C99.8971 15.2467 100.337 15.0333 100.67 14.78C100.697 14.7533 100.737 14.74 100.79 14.74C100.924 14.74 100.99 14.8133 100.99 14.96C100.99 15.0133 100.964 15.06 100.91 15.1C100.55 15.3667 100.104 15.5933 99.5705 15.78C99.0371 15.9533 98.5371 16.0533 98.0705 16.08C98.0438 16.64 97.8971 17.2133 97.6305 17.8C97.3638 18.3867 97.0105 18.9467 96.5705 19.48C96.1305 20.0133 95.6371 20.4867 95.0905 20.9C94.5438 21.3267 93.9838 21.66 93.4105 21.9C92.8238 22.1533 92.2505 22.28 91.6905 22.28Z" fill="#0053A6"/>
</svg>
