<svg width="240" height="240" viewBox="0 0 240 240" fill="none" xmlns="http://www.w3.org/2000/svg">
<g clip-path="url(#clip0_658_11)">
<path d="M120 240.001C186.275 240.001 240.001 186.275 240.001 120C240.001 53.726 186.275 0 120 0C53.726 0 0 53.726 0 120C0 186.275 53.726 240.001 120 240.001Z" fill="url(#paint0_linear_658_11)"/>
<path d="M96.4976 62.7812C77.9079 62.7812 62.7808 77.9084 62.7808 96.498V143.183C62.7808 161.773 77.9079 176.9 96.4976 176.9H143.182C161.772 176.9 176.899 161.773 176.899 143.183V96.498C176.899 77.9084 161.772 62.7812 143.182 62.7812H96.4976ZM96.4976 67.9684H143.182C158.968 67.9684 171.712 80.7122 171.712 96.498V143.183C171.712 158.969 158.968 171.712 143.182 171.712H96.4976C80.7117 171.712 67.968 158.969 67.968 143.183V96.498C67.968 80.7122 80.7117 67.9684 96.4976 67.9684ZM150.963 83.53C148.098 83.53 145.776 85.8524 145.776 88.7172C145.776 91.5821 148.098 93.9044 150.963 93.9044C153.828 93.9044 156.15 91.5821 156.15 88.7172C156.15 85.8524 153.828 83.53 150.963 83.53ZM119.84 91.3108C104.114 91.3108 91.3104 104.115 91.3104 119.84C91.3104 135.566 104.114 148.37 119.84 148.37C135.566 148.37 148.37 135.566 148.37 119.84C148.37 104.115 135.566 91.3108 119.84 91.3108ZM119.84 96.498C132.762 96.498 143.182 106.918 143.182 119.84C143.182 132.763 132.762 143.183 119.84 143.183C106.918 143.183 96.4976 132.763 96.4976 119.84C96.4976 106.918 106.918 96.498 119.84 96.498Z" fill="white"/>
</g>
<defs>
<linearGradient id="paint0_linear_658_11" x1="120" y1="240.001" x2="120" y2="0" gradientUnits="userSpaceOnUse">
<stop/>
<stop offset="1" stop-color="#647DFF"/>
</linearGradient>
<clipPath id="clip0_658_11">
<rect width="240" height="240" fill="white"/>
</clipPath>
</defs>
</svg>
