<svg version="1.1" xmlns="http://www.w3.org/2000/svg" xmlns:xlink="http://www.w3.org/1999/xlink" width="240px" height="240px" viewBox="0,0,256,256"><defs><linearGradient x1="120" y1="240" x2="120" y2="0" gradientUnits="userSpaceOnUse" id="color-1"><stop offset="0" stop-color="#000000"></stop><stop offset="1" stop-color="#647dff"></stop></linearGradient></defs><g fill="none" fill-rule="nonzero" stroke="none" stroke-width="1" stroke-linecap="butt" stroke-linejoin="miter" stroke-miterlimit="10" stroke-dasharray="" stroke-dashoffset="0" font-family="none" font-weight="none" font-size="none" text-anchor="none" style="mix-blend-mode: normal"><g transform="scale(1.06667,1.06667)"><circle cx="120" cy="120" r="120" fill="url(#color-1)"></circle><path d="M81.229,128.772l14.237,39.406c0,0 1.78,3.687 3.686,3.687c1.906,0 30.255,-29.492 30.255,-29.492l31.525,-60.89l-79.195,37.117z" fill="#c8daea"></path><path d="M100.106,138.878l-2.733,29.046c0,0 -1.144,8.9 7.754,0c8.898,-8.9 17.415,-15.763 17.415,-15.763" fill="#a9c6d8"></path><path d="M81.486,130.178l-29.286,-9.542c0,0 -3.5,-1.42 -2.373,-4.64c0.232,-0.664 0.7,-1.229 2.1,-2.2c6.489,-4.523 120.106,-45.36 120.106,-45.36c0,0 3.208,-1.081 5.1,-0.362c0.95292,0.29498 1.6732,1.08021 1.885,2.055c0.20443,0.84567 0.28992,1.71572 0.254,2.585c-0.009,0.752 -0.1,1.449 -0.169,2.542c-0.692,11.165 -21.4,94.493 -21.4,94.493c0,0 -1.239,4.876 -5.678,5.043c-2.20411,0.0712 -4.34259,-0.75604 -5.925,-2.292c-8.711,-7.493 -38.819,-27.727 -45.472,-32.177c-0.30362,-0.2069 -0.50275,-0.53514 -0.546,-0.9c-0.093,-0.469 0.417,-1.05 0.417,-1.05c0,0 52.426,-46.6 53.821,-51.492c0.108,-0.379 -0.3,-0.566 -0.848,-0.4c-3.482,1.281 -63.844,39.4 -70.506,43.607c-0.47955,0.14509 -0.9864,0.17591 -1.48,0.09z" fill="#ffffff"></path></g></g></svg>
