<svg width="158" height="28" viewBox="0 0 158 28" fill="none" xmlns="http://www.w3.org/2000/svg">
<path d="M20.3027 11.373C19.998 11.7598 19.623 12.0469 19.1777 12.2344C18.7441 12.4102 18.2578 12.498 17.7188 12.498H12.5684C12.5332 12.5918 12.5156 12.6797 12.5156 12.7617C12.5156 12.8672 12.5391 12.9551 12.5859 13.0254C12.6328 13.084 12.7266 13.1367 12.8672 13.1836C13.0195 13.2305 13.2246 13.2656 13.4824 13.2891C13.752 13.3008 14.1035 13.3066 14.5371 13.3066H15.75V25.6641C15.2695 26.0859 14.584 26.4668 13.6934 26.8066C12.8145 27.1465 11.7539 27.3164 10.5117 27.3164C9.85547 27.3164 9.22266 27.2461 8.61328 27.1055C8.00391 26.9648 7.46484 26.7539 6.99609 26.4727C6.53906 26.1797 6.16992 25.8164 5.88867 25.3828C5.61914 24.9375 5.48438 24.416 5.48438 23.8184V12.498H1.38867C0.943359 11.8535 0.621094 11.2148 0.421875 10.582C0.222656 9.9375 0.123047 9.25781 0.123047 8.54297C0.123047 8.00391 0.169922 7.51758 0.263672 7.08398C0.357422 6.63867 0.480469 6.24609 0.632812 5.90625C0.785156 5.55469 0.955078 5.25 1.14258 4.99219C1.3418 4.72266 1.54102 4.5 1.74023 4.32422H19.0195C18.9609 4.52344 18.9082 4.74023 18.8613 4.97461C18.8262 5.19727 18.8086 5.42578 18.8086 5.66016C18.8086 6.16406 18.8789 6.57422 19.0195 6.89062C19.1719 7.20703 19.3945 7.36523 19.6875 7.36523C19.8164 7.36523 19.9336 7.34766 20.0391 7.3125C19.8633 6.87891 19.7754 6.36914 19.7754 5.7832C19.7754 5.0332 19.9043 4.35352 20.1621 3.74414C20.4316 3.12305 20.7949 2.5957 21.252 2.16211C21.709 1.7168 22.2422 1.37109 22.8516 1.125C23.4609 0.878906 24.1172 0.755859 24.8203 0.755859C25.5352 0.755859 26.1914 0.884766 26.7891 1.14258C27.3984 1.40039 27.9258 1.75195 28.3711 2.19727C28.8164 2.64258 29.1621 3.17578 29.4082 3.79688C29.666 4.40625 29.7949 5.06836 29.7949 5.7832C29.7949 6.39258 29.6895 6.96094 29.4785 7.48828C29.2793 8.00391 29.0098 8.4668 28.6699 8.87695C28.3301 9.28711 27.9316 9.63281 27.4746 9.91406C27.0176 10.1836 26.543 10.3711 26.0508 10.4766C26.0508 10.6523 26.0859 10.8105 26.1562 10.9512C26.2383 11.0801 26.373 11.1445 26.5605 11.1445C27.1465 11.1445 27.7559 10.9102 28.3887 10.4414C28.4238 10.4648 28.4824 10.5059 28.5645 10.5645C28.6465 10.623 28.7344 10.6934 28.8281 10.7754C28.9219 10.8574 29.0098 10.9395 29.0918 11.0215C29.1738 11.0918 29.2266 11.1445 29.25 11.1797V18.1406C29.25 18.9492 29.3379 19.6465 29.5137 20.2324C29.6895 20.8066 30.0234 21.2461 30.5156 21.5508C30.5273 21.6445 30.5332 21.7617 30.5332 21.9023C30.5332 22.0312 30.5332 22.1309 30.5332 22.2012C30.5332 23.0918 30.4102 23.8594 30.1641 24.5039C29.918 25.1484 29.5723 25.6816 29.127 26.1035C28.6816 26.5137 28.1484 26.8184 27.5273 27.0176C26.918 27.2168 26.25 27.3164 25.5234 27.3164C24.9609 27.3164 24.3691 27.2227 23.748 27.0352C23.1387 26.8477 22.5762 26.5312 22.0605 26.0859C21.5566 25.6406 21.1348 25.0488 20.7949 24.3105C20.4668 23.5605 20.3027 22.6289 20.3027 21.5156V11.373ZM35.8066 7.78711C36.2988 7.78711 36.709 7.875 37.0371 8.05078C37.377 8.22656 37.6758 8.44922 37.9336 8.71875C37.418 9.19922 37.1602 9.59766 37.1602 9.91406C37.1602 10.0547 37.207 10.1836 37.3008 10.3008C37.3945 10.4062 37.5527 10.459 37.7754 10.459C38.0098 10.0488 38.3027 9.66211 38.6543 9.29883C39.0059 8.93555 39.4219 8.61914 39.9023 8.34961C40.3828 8.06836 40.9277 7.8457 41.5371 7.68164C42.1582 7.51758 42.8496 7.43555 43.6113 7.43555C44.1973 7.43555 44.7363 7.50586 45.2285 7.64648C45.7324 7.78711 46.1836 7.96875 46.582 8.19141C46.9805 8.41406 47.3203 8.66016 47.6016 8.92969C47.8828 9.1875 48.1055 9.44531 48.2695 9.70312C48.5508 9.32812 48.8789 9 49.2539 8.71875C49.6289 8.42578 50.0273 8.18555 50.4492 7.99805C50.8828 7.81055 51.334 7.66992 51.8027 7.57617C52.2715 7.48242 52.7344 7.43555 53.1914 7.43555C54.2695 7.43555 55.2188 7.60547 56.0391 7.94531C56.8711 8.28516 57.5684 8.77734 58.1309 9.42188C58.6934 10.0547 59.1211 10.8281 59.4141 11.7422C59.707 12.6445 59.8535 13.6641 59.8535 14.8008C59.8535 15.3281 59.8418 15.9023 59.8184 16.5234C59.7949 17.1445 59.7832 17.7363 59.7832 18.2988C59.7832 19.1074 59.8711 19.793 60.0469 20.3555C60.2227 20.9062 60.5566 21.334 61.0488 21.6387C61.0605 21.7324 61.0664 21.832 61.0664 21.9375C61.0664 22.043 61.0664 22.1309 61.0664 22.2012C61.0664 23.0332 60.9316 23.7715 60.6621 24.416C60.4043 25.0488 60.0527 25.582 59.6074 26.0156C59.1621 26.4492 58.6406 26.7773 58.043 27C57.4453 27.2109 56.8125 27.3164 56.1445 27.3164C55.4414 27.3164 54.7676 27.2227 54.123 27.0352C53.4902 26.8477 52.9277 26.5371 52.4355 26.1035C51.9551 25.6699 51.5684 25.1016 51.2754 24.3984C50.9941 23.6953 50.8535 22.8281 50.8535 21.7969V16.2422C50.8535 15.457 50.5957 15.0645 50.0801 15.0645C49.998 15.0645 49.9102 15.082 49.8164 15.1172C49.7227 15.1406 49.6523 15.1699 49.6055 15.2051L49.9219 17.8242V21.7969C49.9219 22.5586 49.9805 23.2441 50.0977 23.8535C50.2148 24.4512 50.4199 24.9727 50.7129 25.418C50.1387 26.0273 49.4297 26.4961 48.5859 26.8242C47.7539 27.1523 46.9102 27.3164 46.0547 27.3164C45.4336 27.3164 44.8418 27.2402 44.2793 27.0879C43.7168 26.9355 43.2188 26.6719 42.7852 26.2969C42.3516 25.9219 42.0059 25.418 41.748 24.7852C41.502 24.1523 41.3789 23.3613 41.3789 22.4121V16.2422C41.3789 15.457 41.1211 15.0645 40.6055 15.0645C40.5234 15.0645 40.4355 15.082 40.3418 15.1172C40.248 15.1406 40.1777 15.1699 40.1309 15.2051L40.4473 17.8242V22.4824C40.4473 23.1152 40.4766 23.6719 40.5352 24.1523C40.6055 24.6211 40.752 25.0781 40.9746 25.5234C40.459 26.0625 39.7852 26.4961 38.9531 26.8242C38.1328 27.1406 37.1953 27.2988 36.1406 27.2988C35.5898 27.2988 35.0391 27.2227 34.4883 27.0703C33.9492 26.918 33.4629 26.6836 33.0293 26.3672C32.5957 26.0508 32.2441 25.6582 31.9746 25.1895C31.7051 24.709 31.5703 24.1406 31.5703 23.4844V15.082C31.2188 14.5898 30.9551 14.0332 30.7793 13.4121C30.6152 12.791 30.5332 12.1406 30.5332 11.4609C30.5332 10.8984 30.6152 10.2773 30.7793 9.59766C30.9551 8.91797 31.2188 8.31445 31.5703 7.78711H35.8066ZM72.3691 26.2969C72.2285 26.4141 72.0586 26.5371 71.8594 26.666C71.6719 26.7832 71.4434 26.8887 71.1738 26.9824C70.9043 27.0762 70.5879 27.1523 70.2246 27.2109C69.8613 27.2812 69.4395 27.3164 68.959 27.3164C68.4316 27.3164 67.8867 27.2695 67.3242 27.1758C66.7617 27.082 66.2109 26.9238 65.6719 26.7012C65.1445 26.4668 64.6406 26.1562 64.1602 25.7695C63.6797 25.3828 63.2578 24.9023 62.8945 24.3281C62.543 23.7422 62.2617 23.0566 62.0508 22.2715C61.8398 21.4746 61.7344 20.5488 61.7344 19.4941V15.082C61.4883 14.6484 61.2773 14.1504 61.1016 13.5879C60.9258 13.0137 60.8379 12.3633 60.8379 11.6367C60.8379 11.3203 60.8613 10.9922 60.9082 10.6523C60.9434 10.3125 61.002 9.97852 61.084 9.65039C61.166 9.31055 61.2715 8.98242 61.4004 8.66602C61.5293 8.34961 61.6875 8.05664 61.875 7.78711H65.7422C66.4219 7.78711 67.0488 7.86914 67.623 8.0332C68.1973 8.18555 68.6895 8.43164 69.0996 8.77148C69.5098 9.11133 69.8262 9.54492 70.0488 10.0723C70.2832 10.5879 70.4004 11.209 70.4004 11.9355V17.6309C70.4004 18.2871 70.459 18.7383 70.5762 18.9844C70.7051 19.2188 70.8633 19.3359 71.0508 19.3359C71.168 19.3359 71.2559 19.3184 71.3145 19.2832C71.3848 19.248 71.4492 19.207 71.5078 19.1602C71.4492 18.9609 71.4023 18.7207 71.3672 18.4395C71.3438 18.1582 71.332 17.7949 71.332 17.3496V8.66602C71.5547 8.53711 71.8008 8.4082 72.0703 8.2793C72.3516 8.13867 72.6738 8.01562 73.0371 7.91016C73.4004 7.80469 73.8047 7.7168 74.25 7.64648C74.707 7.57617 75.2285 7.54102 75.8145 7.54102C76.834 7.54102 77.7129 7.68164 78.4512 7.96289C79.1895 8.23242 79.7461 8.57227 80.1211 8.98242V18.1406C80.1211 18.9492 80.209 19.6465 80.3848 20.2324C80.5605 20.8066 80.8945 21.2461 81.3867 21.5508C81.3984 21.6445 81.4043 21.7617 81.4043 21.9023C81.4043 22.0312 81.4043 22.1309 81.4043 22.2012C81.4043 23.0918 81.2812 23.8594 81.0352 24.5039C80.8008 25.1484 80.4727 25.6816 80.0508 26.1035C79.6289 26.5137 79.125 26.8184 78.5391 27.0176C77.9648 27.2168 77.3379 27.3164 76.6582 27.3164C75.791 27.3164 74.9824 27.1172 74.2324 26.7188C73.4941 26.3203 72.9375 25.7168 72.5625 24.9082C72.1641 24.9082 71.9648 25.1016 71.9648 25.4883C71.9648 25.6172 72 25.752 72.0703 25.8926C72.1406 26.0332 72.2402 26.168 72.3691 26.2969ZM85.1309 7.78711C85.8574 7.78711 86.4609 7.9043 86.9414 8.13867C87.4336 8.37305 87.8203 8.70117 88.1016 9.12305C87.9492 9.28711 87.8027 9.48633 87.6621 9.7207C87.5332 9.95508 87.416 10.1895 87.3105 10.4238C87.2168 10.6465 87.1406 10.8633 87.082 11.0742C87.0234 11.2734 86.9941 11.4316 86.9941 11.5488C86.9941 11.6895 87.0469 11.8184 87.1523 11.9355C87.2578 12.041 87.4219 12.0938 87.6445 12.0938C87.8672 11.2266 88.1777 10.5 88.5762 9.91406C88.9863 9.32812 89.4492 8.85938 89.9648 8.50781C90.4922 8.15625 91.0547 7.91016 91.6523 7.76953C92.2617 7.61719 92.877 7.54102 93.498 7.54102C94.002 7.54102 94.4648 7.57617 94.8867 7.64648C95.3086 7.70508 95.6895 7.78711 96.0293 7.89258C96.3691 7.99805 96.668 8.12109 96.9258 8.26172C97.1836 8.39062 97.4004 8.51953 97.5762 8.64844C97.7637 9.14062 97.8984 9.66211 97.9805 10.2129C98.0625 10.7637 98.1035 11.3027 98.1035 11.8301C98.1035 12.7793 98.0156 13.5703 97.8398 14.2031C97.6758 14.8359 97.4941 15.3574 97.2949 15.7676C97.1074 15.8613 96.873 15.9551 96.5918 16.0488C96.3105 16.1426 96 16.2246 95.6602 16.2949C95.332 16.3652 94.9805 16.4238 94.6055 16.4707C94.2305 16.5059 93.8613 16.5234 93.498 16.5234C93.1113 16.5234 92.7656 16.5117 92.4609 16.4883C92.168 16.4648 91.8984 16.4355 91.6523 16.4004C91.4062 16.3535 91.1777 16.3066 90.9668 16.2598C90.7676 16.2012 90.5625 16.1484 90.3516 16.1016C90.2578 16.1953 90.2109 16.3301 90.2109 16.5059C90.2109 16.6699 90.3164 16.7988 90.5273 16.8926C90.75 16.9863 91.1426 17.0859 91.7051 17.1914V26.0156C91.3066 26.2734 90.9023 26.4844 90.4922 26.6484C90.082 26.8008 89.6777 26.918 89.2793 27C88.8926 27.0938 88.5176 27.1523 88.1543 27.1758C87.8027 27.2109 87.4746 27.2285 87.1699 27.2285C86.5137 27.2285 85.8984 27.1641 85.3242 27.0352C84.75 26.918 84.2461 26.7363 83.8125 26.4902C83.3906 26.2324 83.0566 25.9102 82.8105 25.5234C82.5645 25.1367 82.4414 24.6738 82.4414 24.1348V15.082C82.0898 14.5898 81.8262 14.0332 81.6504 13.4121C81.4863 12.791 81.4043 12.1406 81.4043 11.4609C81.4043 10.8984 81.4863 10.2773 81.6504 9.59766C81.8262 8.91797 82.0898 8.31445 82.4414 7.78711H85.1309ZM119.373 22.5352C119.783 22.4414 120.229 22.248 120.709 21.9551C121.189 21.6621 121.652 21.1875 122.098 20.5312C122.297 20.2266 122.396 19.9629 122.396 19.7402C122.396 19.4355 122.244 19.2832 121.939 19.2832C121.916 19.2832 121.893 19.2891 121.869 19.3008C121.857 19.3008 121.84 19.3008 121.816 19.3008C120.984 21.0234 119.654 21.8848 117.826 21.8848C117.369 21.8848 116.941 21.8379 116.543 21.7441C116.156 21.6504 115.793 21.498 115.453 21.2871C115.113 21.0762 114.791 20.7949 114.486 20.4434C114.182 20.0918 113.889 19.6582 113.607 19.1426H113.502C113.373 19.1426 113.262 19.1719 113.168 19.2305C113.074 19.2891 113.027 19.3945 113.027 19.5469C113.027 19.7461 113.098 19.957 113.238 20.1797C113.496 20.6016 113.771 20.9648 114.064 21.2695C114.369 21.5742 114.674 21.832 114.979 22.043C115.295 22.2422 115.605 22.3945 115.91 22.5C116.215 22.6055 116.49 22.6699 116.736 22.6934L116.596 26.0156C116.291 26.2148 115.969 26.3965 115.629 26.5605C115.301 26.7246 114.926 26.8652 114.504 26.9824C114.082 27.0879 113.602 27.1699 113.062 27.2285C112.535 27.2871 111.926 27.3164 111.234 27.3164C110.578 27.3164 109.893 27.252 109.178 27.123C108.463 26.9941 107.807 26.7832 107.209 26.4902C106.611 26.1855 106.113 25.7988 105.715 25.3301C105.328 24.8613 105.135 24.2812 105.135 23.5898C105.135 23.2266 105.152 22.7344 105.188 22.1133C105.223 21.4805 105.27 20.7656 105.328 19.9688C105.398 19.1719 105.475 18.3105 105.557 17.3848C105.639 16.459 105.727 15.5273 105.82 14.5898C105.914 13.6406 106.008 12.7031 106.102 11.7773C106.195 10.8516 106.289 9.99023 106.383 9.19336C106.477 8.39648 106.559 7.6875 106.629 7.06641C106.711 6.44531 106.781 5.95898 106.84 5.60742C107.18 5.30273 107.566 5.04492 108 4.83398C108.434 4.62305 108.885 4.45898 109.354 4.3418C109.834 4.21289 110.314 4.125 110.795 4.07812C111.275 4.01953 111.738 3.99023 112.184 3.99023C112.98 3.99023 113.76 4.07812 114.521 4.25391C115.295 4.42969 115.934 4.6582 116.438 4.93945L117.404 8.17383L116.789 10.7578C116.766 10.8516 116.748 10.9395 116.736 11.0215C116.725 11.1035 116.719 11.1855 116.719 11.2676C116.719 11.666 116.953 11.877 117.422 11.9004L119.092 4.95703C119.291 4.85156 119.543 4.74023 119.848 4.62305C120.164 4.50586 120.51 4.40039 120.885 4.30664C121.271 4.21289 121.688 4.13672 122.133 4.07812C122.578 4.01953 123.035 3.99023 123.504 3.99023C124.336 3.99023 125.062 4.06055 125.684 4.20117C126.316 4.33008 126.844 4.54688 127.266 4.85156C127.699 5.14453 128.039 5.53125 128.285 6.01172C128.531 6.49219 128.695 7.08398 128.777 7.78711C128.859 8.52539 128.959 9.41602 129.076 10.459C129.205 11.502 129.334 12.6094 129.463 13.7812C129.592 14.9414 129.721 16.1191 129.85 17.3145C129.979 18.5098 130.09 19.6348 130.184 20.6895C130.289 21.7324 130.371 22.6582 130.43 23.4668C130.5 24.2754 130.535 24.873 130.535 25.2598C129.234 26.6309 127.359 27.3164 124.91 27.3164C124.137 27.3164 123.428 27.252 122.783 27.123C122.139 26.9941 121.582 26.8008 121.113 26.543C120.656 26.2734 120.287 25.9453 120.006 25.5586C119.736 25.1719 119.578 24.7148 119.531 24.1875L119.373 22.5352ZM131.326 10.0898C131.561 9.9375 131.795 9.81445 132.029 9.7207C132.264 9.62695 132.516 9.50977 132.785 9.36914C132.562 9.25195 132.334 9.08789 132.1 8.87695C131.865 8.66602 131.648 8.41406 131.449 8.12109C131.262 7.81641 131.104 7.4707 130.975 7.08398C130.857 6.69727 130.799 6.26367 130.799 5.7832C130.799 5.0332 130.928 4.35352 131.186 3.74414C131.455 3.12305 131.818 2.5957 132.275 2.16211C132.732 1.7168 133.266 1.37109 133.875 1.125C134.484 0.878906 135.141 0.755859 135.844 0.755859C136.559 0.755859 137.215 0.884766 137.812 1.14258C138.422 1.40039 138.949 1.75195 139.395 2.19727C139.84 2.64258 140.186 3.17578 140.432 3.79688C140.689 4.40625 140.818 5.06836 140.818 5.7832C140.818 6.39258 140.713 6.96094 140.502 7.48828C140.303 8.00391 140.033 8.4668 139.693 8.87695C139.354 9.28711 138.955 9.63281 138.498 9.91406C138.041 10.1836 137.566 10.3711 137.074 10.4766C137.074 10.6523 137.109 10.8105 137.18 10.9512C137.262 11.0801 137.396 11.1445 137.584 11.1445C138.17 11.1445 138.779 10.9102 139.412 10.4414C139.447 10.4648 139.506 10.5059 139.588 10.5645C139.67 10.623 139.758 10.6934 139.852 10.7754C139.945 10.8574 140.033 10.9395 140.115 11.0215C140.197 11.0918 140.25 11.1445 140.273 11.1797V18.1406C140.273 18.9492 140.361 19.6465 140.537 20.2324C140.713 20.8066 141.047 21.2461 141.539 21.5508C141.551 21.6445 141.557 21.7617 141.557 21.9023C141.557 22.0312 141.557 22.1309 141.557 22.2012C141.557 23.0918 141.434 23.8594 141.188 24.5039C140.941 25.1484 140.596 25.6816 140.15 26.1035C139.705 26.5137 139.172 26.8184 138.551 27.0176C137.941 27.2168 137.273 27.3164 136.547 27.3164C135.984 27.3164 135.393 27.2227 134.771 27.0352C134.162 26.8477 133.6 26.5312 133.084 26.0859C132.58 25.6406 132.158 25.0488 131.818 24.3105C131.49 23.5605 131.326 22.6289 131.326 21.5156V10.0898ZM153.404 9.24609C153.076 9.24609 152.736 9.23438 152.385 9.21094C152.045 9.1875 151.717 9.1582 151.4 9.12305C151.084 9.08789 150.791 9.05273 150.521 9.01758C150.252 8.9707 150.035 8.92383 149.871 8.87695C149.836 8.91211 149.807 8.95898 149.783 9.01758C149.76 9.06445 149.748 9.13477 149.748 9.22852C149.748 9.42773 150.029 9.61523 150.592 9.79102C151.154 9.95508 152.068 10.0371 153.334 10.0371C154.072 10.0371 154.682 10.0195 155.162 9.98438C155.654 9.9375 156.076 9.88477 156.428 9.82617C156.475 9.91992 156.516 10.0664 156.551 10.2656C156.598 10.4648 156.639 10.6875 156.674 10.9336C156.709 11.1797 156.732 11.4375 156.744 11.707C156.768 11.9766 156.779 12.2168 156.779 12.4277C156.779 13.0254 156.727 13.541 156.621 13.9746C156.516 14.3965 156.369 14.7715 156.182 15.0996H152.93V26.0156C152.531 26.2734 152.127 26.4844 151.717 26.6484C151.307 26.8008 150.902 26.918 150.504 27C150.117 27.0938 149.742 27.1523 149.379 27.1758C149.027 27.2109 148.699 27.2285 148.395 27.2285C147.738 27.2285 147.123 27.1641 146.549 27.0352C145.975 26.918 145.471 26.7363 145.037 26.4902C144.615 26.2324 144.281 25.9102 144.035 25.5234C143.789 25.1367 143.666 24.6738 143.666 24.1348V15.8906H144.211C144.516 15.8906 144.738 15.8379 144.879 15.7324C145.02 15.627 145.09 15.4863 145.09 15.3105C145.09 15.2402 145.078 15.1699 145.055 15.0996H142.137C141.797 14.6074 141.539 14.0625 141.363 13.4648C141.199 12.8555 141.117 12.252 141.117 11.6543C141.117 11.0215 141.199 10.3535 141.363 9.65039C141.539 8.93555 141.797 8.31445 142.137 7.78711H143.666C143.807 6.81445 144.07 5.95313 144.457 5.20312C144.844 4.45312 145.342 3.82617 145.951 3.32227C146.572 2.80664 147.299 2.41992 148.131 2.16211C148.963 1.9043 149.889 1.77539 150.908 1.77539C151.717 1.77539 152.455 1.83984 153.123 1.96875C153.791 2.09766 154.383 2.26172 154.898 2.46094C155.426 2.66016 155.877 2.88281 156.252 3.12891C156.627 3.375 156.926 3.61523 157.148 3.84961C157.195 3.99023 157.23 4.14844 157.254 4.32422C157.277 4.48828 157.295 4.65234 157.307 4.81641C157.318 4.98047 157.324 5.13281 157.324 5.27344C157.324 5.40234 157.324 5.50781 157.324 5.58984C157.324 6.24609 157.277 6.82617 157.184 7.33008C157.102 7.83398 156.973 8.31445 156.797 8.77148C156.434 8.91211 155.959 9.0293 155.373 9.12305C154.799 9.20508 154.143 9.24609 153.404 9.24609Z" fill="#647DFF"/>
</svg>
